<?xml version="1.0" encoding="utf-8"?>
<svg id="master-artboard" viewBox="0 0 1242.8052978515625 649.7142944335938" version="1.1" xmlns="http://www.w3.org/2000/svg" x="0px" y="0px" style="enable-background:new 0 0 336 235.2;" width="1242.8052978515625px" height="649.7142944335938px"><rect id="ee-background" x="0" y="0" width="1242.8052978515625" height="649.7142944335938" style="fill: white; fill-opacity: 0; pointer-events: none;"/><defs><style id="ee-google-fonts">@import url(https://fonts.googleapis.com/css?family=Audiowide:400);</style></defs>





















































































































































<g transform="matrix(1, 0, 0, 1, -51.53118886271653, -253.45450419872307)"><g transform="matrix(1, 0, 0, 1, 77.6934814453125, -180.96240234375)"><g transform="matrix(0.37620311975479126, 0, 0, 0.37620311975479126, -177.70925903320312, 587.758056640625)">
			<path fill="#F78F23" d="M871.4,401.8V385h-5v16.8c-12.6,9.4-9.8,17-9.8,17c6.7-0.4,8.5-4.8,8.5-4.8c0.4,4.2,3.8,6.3,3.8,6.3&#10;&#9;&#9;&#9;&#9;s3.3-2.1,3.8-6.3c0,0,1.9,4.4,8.5,4.8C881.2,418.8,884,411.2,871.4,401.8z"/>
			<path fill="#F78F23" d="M920.2,401.8V385h5v16.8c12.6,9.4,9.8,17,9.8,17c-6.7-0.4-8.5-4.8-8.5-4.8c-0.4,4.2-3.8,6.3-3.8,6.3&#10;&#9;&#9;&#9;&#9;s-3.3-2.1-3.8-6.3c0,0-1.9,4.4-8.5,4.8C910.4,418.8,907.6,411.2,920.2,401.8z"/>
			<path fill="#8066A6" d="M983,210.3c-0.2-1.6-0.4-3.3-0.7-4.9c-2.5-15.9-2.7-32.1-0.3-48c3-19.7,1.1-29.5,1.1-29.5&#10;&#9;&#9;&#9;&#9;c-9-1-17.5,1.4-24.8,5.1c-14.3,7.3-30.6,9.8-46.5,8c-5.1-0.6-10.5-0.9-16-0.9c-5.6,0-10.9,0.3-16,0.9&#10;&#9;&#9;&#9;&#9;c-15.9,1.9-32.1-0.7-46.4-7.9c-7.3-3.7-15.8-6.1-24.8-5.1c0,0-2,9.8,1.1,29.5c2.6,16.7,2.2,33.8-0.5,50.5&#10;&#9;&#9;&#9;&#9;c-0.1,0.8-0.2,1.6-0.4,2.4c-26.1,185.9,39,185.9,87.2,185.9C943.9,396.2,1003.7,396.2,983,210.3z"/>
			<path fill="#9578B6" d="M895.8,391c-22.9,0-48.8,0-66.3-20.1c-22.1-25.4-27.2-77.7-15.7-159.9c0.1-0.8,0.2-1.5,0.3-2.3&#10;&#9;&#9;&#9;&#9;c2.9-18,3.1-35.6,0.6-52.1c-1.7-11.4-1.7-19.3-1.5-23.6c5.7,0.1,11.7,1.7,17.7,4.8c11.7,6,25.1,9.1,38.7,9.1&#10;&#9;&#9;&#9;&#9;c3.6,0,7.2-0.2,10.7-0.6c4.9-0.6,10.1-0.9,15.4-0.9c5.3,0,10.5,0.3,15.4,0.9c3.5,0.4,7.1,0.6,10.6,0.6c13.7,0,27.1-3.1,38.9-9.1&#10;&#9;&#9;&#9;&#9;c6-3,12-4.6,17.7-4.7c0.3,4.4,0.3,12.3-1.5,23.7c-2.5,16.1-2.4,32.8,0.3,49.6c0.2,1.5,0.4,3.1,0.6,4.6&#10;&#9;&#9;&#9;&#9;c9.4,84,3.2,136.8-18.8,161.4C942.2,391,918.6,391,895.8,391z"/>
			<path fill="#F78F23" d="M895.8,199.5l-26.3,37.4c0,0,22,7.5,26.3,30.8c4.3-23.3,26.3-30.8,26.3-30.8L895.8,199.5z"/>
			<path fill="#FDE700" d="M895.8,252.6c-5.3-9.2-13-14.8-18.4-17.8l18.4-35.3l18.4,35.3C908.8,237.8,901.1,243.3,895.8,252.6z"/>
			<g>
				<g>
					<path fill="#B091C3" d="M895.8,199.5c0,0-7.9-43.7-68.7-41.9c0,0-26.7,64.2,13.2,79.2C887.9,254.6,895.8,199.5,895.8,199.5z"/>
					<path fill="#B091C3" d="M895.8,199.5c0,0,7.9-43.7,68.7-41.9c0,0,26.7,64.2-13.2,79.2C903.6,254.6,895.8,199.5,895.8,199.5z"/>
					<path d="M 887.9 199.5 A 31.9 31.9 0 0 1 856 231.4 A 31.9 31.9 0 0 1 824.1 199.5 A 31.9 31.9 0 0 1 856 167.6 A 31.9 31.9 0 0 1 887.9 199.5 Z" fill="#FFFFFF"/>
					<path d="M 873.4 199.5 A 17.4 17.4 0 0 1 856 216.9 A 17.4 17.4 0 0 1 838.6 199.5 A 17.4 17.4 0 0 1 856 182.1 A 17.4 17.4 0 0 1 873.4 199.5 Z" fill="#050605"/>
					<path d="M 855.999988 193.199997 A 6.2 6.2 0 0 1 849.799988 199.399997 A 6.2 6.2 0 0 1 843.599988 193.199997 A 6.2 6.2 0 0 1 849.799988 186.999997 A 6.2 6.2 0 0 1 855.999988 193.199997 Z" fill="#FFFFFF"/>
				</g>
				<g>
					<path d="M 967.4 199.5 A 31.9 31.9 0 0 1 935.5 231.4 A 31.9 31.9 0 0 1 903.6 199.5 A 31.9 31.9 0 0 1 935.5 167.6 A 31.9 31.9 0 0 1 967.4 199.5 Z" fill="#FFFFFF"/>
					<path d="M 952.9 199.5 A 17.4 17.4 0 0 1 935.5 216.9 A 17.4 17.4 0 0 1 918.1 199.5 A 17.4 17.4 0 0 1 935.5 182.1 A 17.4 17.4 0 0 1 952.9 199.5 Z" fill="#050605"/>
					<path d="M 935.499988 193.199997 A 6.2 6.2 0 0 1 929.299988 199.399997 A 6.2 6.2 0 0 1 923.099988 193.199997 A 6.2 6.2 0 0 1 929.299988 186.999997 A 6.2 6.2 0 0 1 935.499988 193.199997 Z" fill="#FFFFFF"/>
				</g>
			</g>
			<path fill="#B091C3" d="M895.8,389.5c62.6,0,61.6-35.4,61.6-79.1c0-0.1,0-0.2,0-0.3c-0.1-16.5-12.1-30.5-28.4-33.5&#10;&#9;&#9;&#9;&#9;c-11.1-2-22.6-2-33.2-2c-11.3,0-23.3,0-34.8,2.4c-15.6,3.3-26.8,17.2-26.8,33.1c0,0.1,0,0.2,0,0.2&#10;&#9;&#9;&#9;&#9;C834.2,354.1,835.6,389.5,895.8,389.5z"/>
		</g><path fill="#652F8E" d="M807.2,221.3c0,0-52.7,10-61.3,96c0,0,14.8-2.9,29.5-18.5c0,0-15.4,28.5,0,46.4c0,0,17.8-10,22.6-37.1&#10;&#9;&#9;&#9;c0,0,1.4,15.1,15,24C812.9,332.1,843.6,303.1,807.2,221.3z" transform="matrix(0.37620311975479126, 0, 0, 0.37620311975479126, -177.70925903320312, 587.758056640625)"/><path fill="#652F8E" d="M984.4,221.3c0,0,52.7,10,61.3,96c0,0-14.8-2.9-29.5-18.5c0,0,15.4,28.5,0,46.4c0,0-17.8-10-22.6-37.1&#10;&#9;&#9;&#9;c0,0-1.4,15.1-15,24C978.7,332.1,948,303.1,984.4,221.3z" transform="matrix(0.37620311975479126, 0, 0, 0.37620311975479126, -177.70925903320312, 587.758056640625)"/></g></g><g transform="matrix(0.4498804807662964, 0, 0, 0.4498804807662964, 144.04364023884597, 185.46799659044234)"><path d="M 303.22076416015625 131.0129852294922 L 691.8413696289062 131.0129852294922 C 691.8413696289062 131.0129852294922 733.3478393554688 148.67535400390625 691.8413696289062 179.58444213867188 L 301.4455261230469 179.58444213867188" style="fill: rgb(0, 0, 0); fill-opacity: 1; stroke: rgb(0, 0, 0); stroke-opacity: 1; stroke-width: 10; paint-order: stroke;" transform="matrix(1, 0, 0, 1, 0, 0)"/><path d="M 286.4415588378906 179.58441162109375 C 286.4415588378906 179.58441162109375 234.33766174316406 163.6883087158203 282.0259704589844 130.1298599243164" style="fill: rgb(0, 0, 0); fill-opacity: 1; stroke: rgb(0, 0, 0); stroke-opacity: 1; stroke-width: 10; paint-order: stroke;" transform="matrix(1, 0, 0, 1, 22.961040496826172, 0.8831102848052694)"/></g><g transform="matrix(0.3704799711704254, 0, 0, 0.3704799711704254, 183.22756968220534, 51.915033154792496)"><g id="g-5" transform="matrix(1, 0, 0, 1, 0, 0)">
	<g id="g-6">
		<path class="st0" d="M687.4,556.4L652,571l-35.4-14.6L602,521l14.6-35.4L652,471l35.4,14.6L702,521L687.4,556.4z" style="fill: rgb(17, 238, 24);"/>
	</g>
</g></g><g transform="matrix(0.3704799711704254, 0, 0, 0.3704799711704254, 65.77301035603347, 52.79818134815187)"><g id="g-1" transform="matrix(1, 0, 0, 1, 0, 0)">
	<g id="g-2">
		<path class="st0" d="M687.4,556.4L652,571l-35.4-14.6L602,521l14.6-35.4L652,471l35.4,14.6L702,521L687.4,556.4z" style="fill: rgb(17, 238, 24);"/>
	</g>
</g></g><g transform="matrix(0.3704799711704254, 0, 0, 0.3704799711704254, 126.70806894978347, 51.91506367237062)"><g id="g-3" transform="matrix(1, 0, 0, 1, 0, 0)">
	<g id="g-4">
		<path class="st0" d="M687.4,556.4L652,571l-35.4-14.6L602,521l14.6-35.4L652,471l35.4,14.6L702,521L687.4,556.4z" style="fill: rgb(17, 238, 24);"/>
	</g>
</g></g><g transform="matrix(0.45932176709175115, 0, 0, 0.45932176709175115, 585.0073046865218, -142.5803624550595)"><g transform="matrix(0.4076074659824372, 0, 0, 0.4076074659824372, 265.40804290771484, 536.8193588256837)">
		<path fill="#F78F23" d="M555.8,401.8V385h-5v16.8c-12.6,9.4-9.8,17-9.8,17c6.7-0.4,8.5-4.8,8.5-4.8c0.4,4.2,3.8,6.3,3.8,6.3&#10;&#9;&#9;&#9;s3.3-2.1,3.8-6.3c0,0,1.9,4.4,8.5,4.8C565.6,418.8,568.4,411.2,555.8,401.8z"/>
		<path fill="#F78F23" d="M604.6,401.8V385h5v16.8c12.6,9.4,9.8,17,9.8,17c-6.7-0.4-8.5-4.8-8.5-4.8c-0.4,4.2-3.8,6.3-3.8,6.3&#10;&#9;&#9;&#9;s-3.3-2.1-3.8-6.3c0,0-1.9,4.4-8.5,4.8C594.8,418.8,592.1,411.2,604.6,401.8z"/>
		<path fill="#037484" d="M667.4,210.3c-1.1-9.9-3.4-18.7-6.8-26.4c10.7-37.3,7-55.9,7-55.9c-19.3-2.1-35.8,11.1-44.5,19.8&#10;&#9;&#9;&#9;c-12.3-5.1-26.8-7.6-42.9-7.6c-16.2,0-30.5,2.5-42.7,7.7c-8.6-8.6-25.2-22-44.6-19.9c0,0-3.8,18.9,7.2,56.7&#10;&#9;&#9;&#9;c-3.3,7.6-5.7,16.1-7.1,25.7c-26.1,185.9,39,185.9,87.2,185.9C628.4,396.2,688.2,396.2,667.4,210.3z"/>
		<path fill="#007E97" d="M580.2,391c-22.9,0-48.8,0-66.3-20.1c-22.1-25.4-27.2-77.7-15.7-159.9c1.2-8.9,3.5-17.1,6.7-24.3l0.8-1.7&#10;&#9;&#9;&#9;l-0.5-1.8c-7.7-26.4-7.9-43.1-7.5-50.2c15.7,0.3,29.3,11.7,36.1,18.5l2.5,2.5l3.3-1.4c11.5-4.8,25.2-7.3,40.7-7.3&#10;&#9;&#9;&#9;c15.5,0,29.3,2.4,40.9,7.2l3.2,1.3l2.5-2.5c6.8-6.8,20.4-18.1,36-18.4c0.4,7.1,0.1,23.7-7.3,49.4l-0.5,1.8l0.8,1.7&#10;&#9;&#9;&#9;c3.2,7.4,5.4,15.8,6.4,24.9c9.4,84,3.2,136.8-18.8,161.4C626.7,391,603.1,391,580.2,391z"/>
		<path fill="#FBB040" d="M580.2,199.5l-26.3,37.4c0,0,22,7.5,26.3,30.8c4.3-23.3,26.3-30.8,26.3-30.8L580.2,199.5z"/>
		<g>
			<g>
				<path d="M 580.200001 199.5 A 39.700001 39.700001 0 0 1 540.5 239.200001 A 39.700001 39.700001 0 0 1 500.799999 199.5 A 39.700001 39.700001 0 0 1 540.5 159.799999 A 39.700001 39.700001 0 0 1 580.200001 199.5 Z" fill="#7DD0DE"/>
				<path d="M 572.4 199.5 A 31.9 31.9 0 0 1 540.5 231.4 A 31.9 31.9 0 0 1 508.6 199.5 A 31.9 31.9 0 0 1 540.5 167.6 A 31.9 31.9 0 0 1 572.4 199.5 Z" fill="#FFFFFF"/>
				<path d="M 557.9 199.5 A 17.4 17.4 0 0 1 540.5 216.9 A 17.4 17.4 0 0 1 523.1 199.5 A 17.4 17.4 0 0 1 540.5 182.1 A 17.4 17.4 0 0 1 557.9 199.5 Z" fill="#050605"/>
				<path d="M 546.7 199.5 A 6.2 6.2 0 0 1 540.5 205.7 A 6.2 6.2 0 0 1 534.3 199.5 A 6.2 6.2 0 0 1 540.5 193.3 A 6.2 6.2 0 0 1 546.7 199.5 Z" fill="#FBB040"/>
			</g>
			<g>
				<path d="M 659.700001 199.5 A 39.700001 39.700001 0 0 1 620 239.200001 A 39.700001 39.700001 0 0 1 580.299999 199.5 A 39.700001 39.700001 0 0 1 620 159.799999 A 39.700001 39.700001 0 0 1 659.700001 199.5 Z" fill="#7DD0DE"/>
				<path d="M 651.9 199.5 A 31.9 31.9 0 0 1 620 231.4 A 31.9 31.9 0 0 1 588.1 199.5 A 31.9 31.9 0 0 1 620 167.6 A 31.9 31.9 0 0 1 651.9 199.5 Z" fill="#FFFFFF"/>
				<path d="M 637.4 199.5 A 17.4 17.4 0 0 1 620 216.9 A 17.4 17.4 0 0 1 602.6 199.5 A 17.4 17.4 0 0 1 620 182.1 A 17.4 17.4 0 0 1 637.4 199.5 Z" fill="#050605"/>
				<path d="M 626.2 199.5 A 6.2 6.2 0 0 1 620 205.7 A 6.2 6.2 0 0 1 613.8 199.5 A 6.2 6.2 0 0 1 620 193.3 A 6.2 6.2 0 0 1 626.2 199.5 Z" fill="#FBB040"/>
			</g>
		</g>
		<path fill="#22A0B8" d="M580.2,274.6c-34,0-61.6,35.4-61.6,79.1c0,0.1,0,0.2,0,0.3c0.1,16.5,12.1,30.5,28.4,33.5&#10;&#9;&#9;&#9;c11.1,2,22.6,2,33.2,2c11.3,0,23.3,0,34.8-2.4c15.6-3.3,26.8-17.2,26.8-33.1c0-0.1,0-0.2,0-0.2C641.8,310,614.2,274.6,580.2,274.6&#10;&#9;&#9;&#9;z" style="fill: rgb(17, 238, 24);"/>
		<path fill="#F15A27" d="M493,217c0,0,89.1,48.9-31,149.3C461.9,366.3,468.1,231.3,493,217z"/>
		<path fill="#EF4136" d="M467.9,354.2c0.9-13,2.5-34.5,5.4-56.6c6.8-52.2,15.2-68.9,20-74.2c6.9,4.8,23.8,18.7,26,41.5&#10;&#9;&#9;&#9;C521.8,291.4,504.5,321.4,467.9,354.2z"/>
		<path fill="#F15A27" d="M667.5,217c0,0-89.1,48.9,31,149.3C698.5,366.3,692.4,231.3,667.5,217z"/>
		<path fill="#EF4136" d="M692.6,354.2c-36.6-32.8-53.9-62.8-51.4-89.3c2.2-22.8,19.1-36.7,26-41.5c4.8,5.3,13.2,21.9,20,74.2&#10;&#9;&#9;&#9;C690,319.7,691.7,341.2,692.6,354.2z"/>
	<path d="M 616.1582641601562 349.3398742675781" style="fill: rgb(247, 143, 35); fill-opacity: 1; stroke: rgb(0, 0, 0); stroke-opacity: 1; stroke-width: 0; paint-order: fill;"/></g></g><g transform="matrix(0.6338153564505234, 0, 0, 0.6338153564505234, 394.475831512526, -32.3766464577528)"><path fill="#F78F23" d="M207.2,401.8V385h-5v16.8c-12.6,9.4-9.8,17-9.8,17c6.7-0.4,8.5-4.8,8.5-4.8c0.4,4.2,3.8,6.3,3.8,6.3&#10;&#9;&#9;&#9;s3.3-2.1,3.8-6.3c0,0,1.9,4.4,8.5,4.8C217,418.8,219.8,411.2,207.2,401.8z" transform="matrix(1, 0, 0, 1, 22.894500732421875, 165.6101531982422)"/><path fill="#F78F23" d="M256,401.8V385h5v16.8c12.6,9.4,9.8,17,9.8,17c-6.7-0.4-8.5-4.8-8.5-4.8c-0.4,4.2-3.8,6.3-3.8,6.3&#10;&#9;&#9;&#9;s-3.3-2.1-3.8-6.3c0,0-1.9,4.4-8.5,4.8C246.2,418.8,243.5,411.2,256,401.8z" transform="matrix(1, 0, 0, 1, 22.894500732421875, 165.6101531982422)"/><path fill="#22A0B8" d="M332.1,233.2L332.1,233.2c13.2-31.6-1.5-70.1-6.6-93.5c-1.4-6.6-9.8-8.7-14.2-3.6&#10;&#9;&#9;&#9;c-17.2,20.2-42.9,22.1-42.9,22.1s0,0,0,0c-11.5-5.7-23.9-9-36.8-9c-12.9,0-25.3,3.3-36.8,9c0,0,0,0,0,0s-25.7-2-42.9-22.1&#10;&#9;&#9;&#9;c-4.4-5.1-12.8-3-14.2,3.6c-5.1,23.4-19.8,61.9-6.6,93.5l0,0c-6.7,17.2-10.5,35.4-10.5,52.8c0,63.1,49.7,114.2,111,114.2&#10;&#9;&#9;&#9;s111-51.1,111-114.2C342.6,268.6,338.9,250.5,332.1,233.2z" transform="matrix(1, 0, 0, 1, 22.894500732421875, 165.6101531982422)"/><path fill="#2CB7EA" d="M231.6,395.3c-58.5,0-106.1-49-106.1-109.3c0-16.3,3.5-34,10.2-51l0.7-1.8l-0.8-1.8&#10;&#9;&#9;&#9;c-10.2-24.5-2.3-54.7,3.4-76.8c1.3-4.9,2.5-9.6,3.4-13.8c0.4-1.8,2-2.6,3.3-2.6c0.7,0,1.6,0.2,2.4,1.1&#10;&#9;&#9;&#9;c13.5,15.8,31.5,21.2,40.5,23l8.2,0.4c11.3-5.6,22.9-8.5,34.6-8.5c11.6,0,23.3,2.9,34.6,8.5l9.5-0.6c9.4-2,26.4-7.6,39.3-22.7&#10;&#9;&#9;&#9;c0.8-0.9,1.8-1.1,2.4-1.1c1.4,0,2.9,0.8,3.3,2.6c0.9,4.2,2.1,8.9,3.4,13.8c5.8,22,13.7,52.2,3.4,76.8l-0.8,1.8l0.7,1.8&#10;&#9;&#9;&#9;c6.7,17,10.2,34.6,10.2,51C337.8,346.3,290.2,395.3,231.6,395.3z" transform="matrix(1, 0, 0, 1, 22.894500732421875, 165.6101531982422)"/><path fill="#F78F23" d="M231.6,206.6L205.3,244c0,0,22,7.5,26.3,30.8c4.3-23.3,26.3-30.8,26.3-30.8L231.6,206.6z" transform="matrix(1, 0, 0, 1, 22.894500732421875, 165.6101531982422)"/><g transform="matrix(1, 0, 0, 1, 22.894500732421875, 165.6101531982422)">
				<path d="M 231.600002 207.399994 A 38.299999 38.299999 0 0 1 193.300003 245.699993 A 38.299999 38.299999 0 0 1 155.000004 207.399994 A 38.299999 38.299999 0 0 1 193.300003 169.099995 A 38.299999 38.299999 0 0 1 231.600002 207.399994 Z" fill="#D9D9D8"/>
				<path d="M 224.000004 213.5 A 30.700001 30.700001 0 0 1 193.300003 244.200001 A 30.700001 30.700001 0 0 1 162.600002 213.5 A 30.700001 30.700001 0 0 1 193.300003 182.799999 A 30.700001 30.700001 0 0 1 224.000004 213.5 Z" fill="#FFFFFF"/>
				<path d="M 210.100002 213.5 A 16.799999 16.799999 0 0 1 193.300003 230.299999 A 16.799999 16.799999 0 0 1 176.500004 213.5 A 16.799999 16.799999 0 0 1 193.300003 196.700001 A 16.799999 16.799999 0 0 1 210.100002 213.5 Z" fill="#050605"/>
				<path d="M 193.300003 219.5 A 6 6 0 0 1 187.300003 225.5 A 6 6 0 0 1 181.300003 219.5 A 6 6 0 0 1 187.300003 213.5 A 6 6 0 0 1 193.300003 219.5 Z" fill="#FFFFFF"/>
			</g><path d="M 308.199993 207.399994 A 38.299999 38.299999 0 0 1 269.899994 245.699993 A 38.299999 38.299999 0 0 1 231.599995 207.399994 A 38.299999 38.299999 0 0 1 269.899994 169.099995 A 38.299999 38.299999 0 0 1 308.199993 207.399994 Z" fill="#D9D9D8" transform="matrix(1, 0, 0, 1, 22.894500732421875, 165.6101531982422)"/><path d="M 300.599995 213.5 A 30.700001 30.700001 0 0 1 269.899994 244.200001 A 30.700001 30.700001 0 0 1 239.199993 213.5 A 30.700001 30.700001 0 0 1 269.899994 182.799999 A 30.700001 30.700001 0 0 1 300.599995 213.5 Z" fill="#FFFFFF" transform="matrix(1, 0, 0, 1, 22.894500732421875, 165.6101531982422)"/><path d="M 286.699993 213.5 A 16.799999 16.799999 0 0 1 269.899994 230.299999 A 16.799999 16.799999 0 0 1 253.099995 213.5 A 16.799999 16.799999 0 0 1 269.899994 196.700001 A 16.799999 16.799999 0 0 1 286.699993 213.5 Z" fill="#050605" transform="matrix(1, 0, 0, 1, 22.894500732421875, 165.6101531982422)"/><path d="M 269.899994 219.5 A 6 6 0 0 1 263.899994 225.5 A 6 6 0 0 1 257.899994 219.5 A 6 6 0 0 1 263.899994 213.5 A 6 6 0 0 1 269.899994 219.5 Z" fill="#FFFFFF" transform="matrix(1, 0, 0, 1, 22.894500732421875, 165.6101531982422)"/><path fill="#7CCAF1" d="M217.9,291.6c-45.4,0-66,57.4-30.4,85.7c12.8,10.2,27.9,16,44.1,16c16.2,0,31.3-5.9,44.1-16&#10;&#9;&#9;&#9;c35.6-28.2,15-85.7-30.4-85.7H217.9z" transform="matrix(1, 0, 0, 1, 22.894500732421875, 165.6101531982422)"/><path fill="#09575A" d="M131.1,233.2c0,0,89.1,34.9,10.9,138.5C142,371.7,85.8,279.1,131.1,233.2z" transform="matrix(1, 0, 0, 1, 22.894500732421875, 165.6101531982422)"/><path fill="#08717F" d="M142.6,362.7c-11.1-20.9-42-87-10.3-123.6c7.7,3.9,28.2,16.2,34.8,39.8&#10;&#9;&#9;&#9;C173.7,302.4,165.4,330.5,142.6,362.7z" transform="matrix(1, 0, 0, 1, 22.894500732421875, 165.6101531982422)"/><path fill="#09575A" d="M332.1,233.2c0,0-89.1,34.9-10.9,138.5C321.2,371.7,377.5,279.1,332.1,233.2z" transform="matrix(1, 0, 0, 1, 22.894500732421875, 165.6101531982422)"/><path fill="#08717F" d="M320.7,362.7c-22.9-32.2-31.1-60.4-24.5-83.8c6.7-23.7,27.1-35.9,34.8-39.7&#10;&#9;&#9;&#9;C362.7,275.7,331.8,341.8,320.7,362.7z" transform="matrix(1, 0, 0, 1, 22.894500732421875, 165.6101531982422)"/></g><g transform="matrix(0.3259724038796621, -0.13068929724050152, 0.13068929724050152, 0.3259724038796621, 534.204898839569, 215.25142195106966)"><path d="M 303.22076416015625 131.0129852294922 L 691.8413696289062 131.0129852294922 C 691.8413696289062 131.0129852294922 733.3478393554688 148.67535400390625 691.8413696289062 179.58444213867188 L 301.4455261230469 179.58444213867188" style="fill: rgb(0, 0, 0); fill-opacity: 1; stroke: rgb(0, 0, 0); stroke-opacity: 1; stroke-width: 10; paint-order: stroke;" transform="matrix(1, 0, 0, 1, 0, 0)"/><path d="M 286.4415588378906 179.58441162109375 C 286.4415588378906 179.58441162109375 234.33766174316406 163.6883087158203 282.0259704589844 130.1298599243164" style="fill: rgb(0, 0, 0); fill-opacity: 1; stroke: rgb(0, 0, 0); stroke-opacity: 1; stroke-width: 10; paint-order: stroke;" transform="matrix(1, 0, 0, 1, 22.961040496826172, 0.8831102848052694)"/></g><g transform="matrix(0.2684407291564366, -0.10762362528062044, 0.10762362528062044, 0.2684407291564366, 523.7997721243867, 107.09937730362653)"><g id="g-7" transform="matrix(1, 0, 0, 1, 0, 0)">
	<g id="g-8">
		<path class="st0" d="M687.4,556.4L652,571l-35.4-14.6L602,521l14.6-35.4L652,471l35.4,14.6L702,521L687.4,556.4z" style="fill: rgb(17, 238, 24);"/>
	</g>
</g></g><g transform="matrix(0.2684407291564366, -0.10762362528062044, 0.10762362528062044, 0.2684407291564366, 438.95163612989757, 141.8595677883182)"><g id="g-9" transform="matrix(1, 0, 0, 1, 0, 0)">
	<g id="g-10">
		<path class="st0" d="M687.4,556.4L652,571l-35.4-14.6L602,521l14.6-35.4L652,471l35.4,14.6L702,521L687.4,556.4z" style="fill: rgb(17, 238, 24);"/>
	</g>
</g></g><g transform="matrix(0.2684407291564366, -0.10762362528062044, 0.10762362528062044, 0.2684407291564366, 482.8471456841777, 123.51819365172864)"><g id="g-11" transform="matrix(1, 0, 0, 1, 0, 0)">
	<g id="g-12">
		<path class="st0" d="M687.4,556.4L652,571l-35.4-14.6L602,521l14.6-35.4L652,471l35.4,14.6L702,521L687.4,556.4z" style="fill: rgb(17, 238, 24);"/>
	</g>
</g></g><g transform="matrix(0.45932176709175115, 0, 0, 0.45932176709175115, 584.0016894521468, 38.017011507342886)"><g transform="matrix(0.4076074659824372, 0, 0, 0.4076074659824372, 265.40804290771484, 536.8193588256837)">
		<path fill="#F78F23" d="M555.8,401.8V385h-5v16.8c-12.6,9.4-9.8,17-9.8,17c6.7-0.4,8.5-4.8,8.5-4.8c0.4,4.2,3.8,6.3,3.8,6.3&#10;&#9;&#9;&#9;s3.3-2.1,3.8-6.3c0,0,1.9,4.4,8.5,4.8C565.6,418.8,568.4,411.2,555.8,401.8z"/>
		<path fill="#F78F23" d="M604.6,401.8V385h5v16.8c12.6,9.4,9.8,17,9.8,17c-6.7-0.4-8.5-4.8-8.5-4.8c-0.4,4.2-3.8,6.3-3.8,6.3&#10;&#9;&#9;&#9;s-3.3-2.1-3.8-6.3c0,0-1.9,4.4-8.5,4.8C594.8,418.8,592.1,411.2,604.6,401.8z"/>
		<path fill="#037484" d="M667.4,210.3c-1.1-9.9-3.4-18.7-6.8-26.4c10.7-37.3,7-55.9,7-55.9c-19.3-2.1-35.8,11.1-44.5,19.8&#10;&#9;&#9;&#9;c-12.3-5.1-26.8-7.6-42.9-7.6c-16.2,0-30.5,2.5-42.7,7.7c-8.6-8.6-25.2-22-44.6-19.9c0,0-3.8,18.9,7.2,56.7&#10;&#9;&#9;&#9;c-3.3,7.6-5.7,16.1-7.1,25.7c-26.1,185.9,39,185.9,87.2,185.9C628.4,396.2,688.2,396.2,667.4,210.3z"/>
		<path fill="#007E97" d="M580.2,391c-22.9,0-48.8,0-66.3-20.1c-22.1-25.4-27.2-77.7-15.7-159.9c1.2-8.9,3.5-17.1,6.7-24.3l0.8-1.7&#10;&#9;&#9;&#9;l-0.5-1.8c-7.7-26.4-7.9-43.1-7.5-50.2c15.7,0.3,29.3,11.7,36.1,18.5l2.5,2.5l3.3-1.4c11.5-4.8,25.2-7.3,40.7-7.3&#10;&#9;&#9;&#9;c15.5,0,29.3,2.4,40.9,7.2l3.2,1.3l2.5-2.5c6.8-6.8,20.4-18.1,36-18.4c0.4,7.1,0.1,23.7-7.3,49.4l-0.5,1.8l0.8,1.7&#10;&#9;&#9;&#9;c3.2,7.4,5.4,15.8,6.4,24.9c9.4,84,3.2,136.8-18.8,161.4C626.7,391,603.1,391,580.2,391z"/>
		<path fill="#FBB040" d="M580.2,199.5l-26.3,37.4c0,0,22,7.5,26.3,30.8c4.3-23.3,26.3-30.8,26.3-30.8L580.2,199.5z"/>
		<g>
			<g>
				<path d="M 580.200001 199.5 A 39.700001 39.700001 0 0 1 540.5 239.200001 A 39.700001 39.700001 0 0 1 500.799999 199.5 A 39.700001 39.700001 0 0 1 540.5 159.799999 A 39.700001 39.700001 0 0 1 580.200001 199.5 Z" fill="#7DD0DE"/>
				<path d="M 572.4 199.5 A 31.9 31.9 0 0 1 540.5 231.4 A 31.9 31.9 0 0 1 508.6 199.5 A 31.9 31.9 0 0 1 540.5 167.6 A 31.9 31.9 0 0 1 572.4 199.5 Z" fill="#FFFFFF"/>
				<path d="M 557.9 199.5 A 17.4 17.4 0 0 1 540.5 216.9 A 17.4 17.4 0 0 1 523.1 199.5 A 17.4 17.4 0 0 1 540.5 182.1 A 17.4 17.4 0 0 1 557.9 199.5 Z" fill="#050605"/>
				<path d="M 546.7 199.5 A 6.2 6.2 0 0 1 540.5 205.7 A 6.2 6.2 0 0 1 534.3 199.5 A 6.2 6.2 0 0 1 540.5 193.3 A 6.2 6.2 0 0 1 546.7 199.5 Z" fill="#FBB040"/>
			</g>
			<g>
				<path d="M 659.700001 199.5 A 39.700001 39.700001 0 0 1 620 239.200001 A 39.700001 39.700001 0 0 1 580.299999 199.5 A 39.700001 39.700001 0 0 1 620 159.799999 A 39.700001 39.700001 0 0 1 659.700001 199.5 Z" fill="#7DD0DE"/>
				<path d="M 651.9 199.5 A 31.9 31.9 0 0 1 620 231.4 A 31.9 31.9 0 0 1 588.1 199.5 A 31.9 31.9 0 0 1 620 167.6 A 31.9 31.9 0 0 1 651.9 199.5 Z" fill="#FFFFFF"/>
				<path d="M 637.4 199.5 A 17.4 17.4 0 0 1 620 216.9 A 17.4 17.4 0 0 1 602.6 199.5 A 17.4 17.4 0 0 1 620 182.1 A 17.4 17.4 0 0 1 637.4 199.5 Z" fill="#050605"/>
				<path d="M 626.2 199.5 A 6.2 6.2 0 0 1 620 205.7 A 6.2 6.2 0 0 1 613.8 199.5 A 6.2 6.2 0 0 1 620 193.3 A 6.2 6.2 0 0 1 626.2 199.5 Z" fill="#FBB040"/>
			</g>
		</g>
		<path fill="#22A0B8" d="M580.2,274.6c-34,0-61.6,35.4-61.6,79.1c0,0.1,0,0.2,0,0.3c0.1,16.5,12.1,30.5,28.4,33.5&#10;&#9;&#9;&#9;c11.1,2,22.6,2,33.2,2c11.3,0,23.3,0,34.8-2.4c15.6-3.3,26.8-17.2,26.8-33.1c0-0.1,0-0.2,0-0.2C641.8,310,614.2,274.6,580.2,274.6&#10;&#9;&#9;&#9;z" style="fill: rgb(17, 238, 24);"/>
		<path fill="#F15A27" d="M493,217c0,0,89.1,48.9-31,149.3C461.9,366.3,468.1,231.3,493,217z"/>
		<path fill="#EF4136" d="M467.9,354.2c0.9-13,2.5-34.5,5.4-56.6c6.8-52.2,15.2-68.9,20-74.2c6.9,4.8,23.8,18.7,26,41.5&#10;&#9;&#9;&#9;C521.8,291.4,504.5,321.4,467.9,354.2z"/>
		<path fill="#F15A27" d="M667.5,217c0,0-89.1,48.9,31,149.3C698.5,366.3,692.4,231.3,667.5,217z"/>
		<path fill="#EF4136" d="M692.6,354.2c-36.6-32.8-53.9-62.8-51.4-89.3c2.2-22.8,19.1-36.7,26-41.5c4.8,5.3,13.2,21.9,20,74.2&#10;&#9;&#9;&#9;C690,319.7,691.7,341.2,692.6,354.2z"/>
	<path d="M 616.1582641601562 349.3398742675781" style="fill: rgb(247, 143, 35); fill-opacity: 1; stroke: rgb(0, 0, 0); stroke-opacity: 1; stroke-width: 0; paint-order: fill;"/></g></g><g transform="matrix(0.317938859714584, 0.10750587435125374, -0.10750587435125374, 0.317938859714584, 574.1988181456276, 196.87677296292009)"><path d="M 303.22076416015625 131.0129852294922 L 691.8413696289062 131.0129852294922 C 691.8413696289062 131.0129852294922 733.3478393554688 148.67535400390625 691.8413696289062 179.58444213867188 L 301.4455261230469 179.58444213867188" style="fill: rgb(0, 0, 0); fill-opacity: 1; stroke: rgb(0, 0, 0); stroke-opacity: 1; stroke-width: 10; paint-order: stroke;" transform="matrix(1, 0, 0, 1, 0, 0)"/><path d="M 286.4415588378906 179.58441162109375 C 286.4415588378906 179.58441162109375 234.33766174316406 163.6883087158203 282.0259704589844 130.1298599243164" style="fill: rgb(0, 0, 0); fill-opacity: 1; stroke: rgb(0, 0, 0); stroke-opacity: 1; stroke-width: 10; paint-order: stroke;" transform="matrix(1, 0, 0, 1, 22.961040496826172, 0.8831102848052694)"/></g><g transform="matrix(0.2618251155304583, 0.08853192516023374, -0.08853192516023374, 0.2618251155304583, 633.8053927292498, 111.8560707911539)"><g id="g-13" transform="matrix(1, 0, 0, 1, 0, 0)">
	<g id="g-14">
		<path class="st0" d="M687.4,556.4L652,571l-35.4-14.6L602,521l14.6-35.4L652,471l35.4,14.6L702,521L687.4,556.4z" style="fill: rgb(17, 238, 24);"/>
	</g>
</g></g><g transform="matrix(0.2618251260618635, 0.08853192872125794, -0.08853192872125794, 0.2618251260618635, 550.5870602224761, 84.41261101319537)"><g id="g-15" transform="matrix(1, 0, 0, 1, 0, 0)">
	<g id="g-16">
		<path class="st0" d="M687.4,556.4L652,571l-35.4-14.6L602,521l14.6-35.4L652,471l35.4,14.6L702,521L687.4,556.4z" style="fill: rgb(17, 238, 24);"/>
	</g>
</g></g><g transform="matrix(0.2618251155304583, 0.08853192516023374, -0.08853192516023374, 0.2618251155304583, 593.8620155651805, 98.34987944718057)"><g id="g-17" transform="matrix(1, 0, 0, 1, 0, 0)">
	<g id="g-18">
		<path class="st0" d="M687.4,556.4L652,571l-35.4-14.6L602,521l14.6-35.4L652,471l35.4,14.6L702,521L687.4,556.4z" style="fill: rgb(17, 238, 24);"/>
	</g>
</g></g><g transform="matrix(0.45932176709175115, 0, 0, 0.45932176709175115, 772.1055712880845, -51.17778982322352)"><g transform="matrix(0.4076074659824372, 0, 0, 0.4076074659824372, 265.40804290771484, 536.8193588256837)">
		<path fill="#F78F23" d="M555.8,401.8V385h-5v16.8c-12.6,9.4-9.8,17-9.8,17c6.7-0.4,8.5-4.8,8.5-4.8c0.4,4.2,3.8,6.3,3.8,6.3&#10;&#9;&#9;&#9;s3.3-2.1,3.8-6.3c0,0,1.9,4.4,8.5,4.8C565.6,418.8,568.4,411.2,555.8,401.8z"/>
		<path fill="#F78F23" d="M604.6,401.8V385h5v16.8c12.6,9.4,9.8,17,9.8,17c-6.7-0.4-8.5-4.8-8.5-4.8c-0.4,4.2-3.8,6.3-3.8,6.3&#10;&#9;&#9;&#9;s-3.3-2.1-3.8-6.3c0,0-1.9,4.4-8.5,4.8C594.8,418.8,592.1,411.2,604.6,401.8z"/>
		<path fill="#037484" d="M667.4,210.3c-1.1-9.9-3.4-18.7-6.8-26.4c10.7-37.3,7-55.9,7-55.9c-19.3-2.1-35.8,11.1-44.5,19.8&#10;&#9;&#9;&#9;c-12.3-5.1-26.8-7.6-42.9-7.6c-16.2,0-30.5,2.5-42.7,7.7c-8.6-8.6-25.2-22-44.6-19.9c0,0-3.8,18.9,7.2,56.7&#10;&#9;&#9;&#9;c-3.3,7.6-5.7,16.1-7.1,25.7c-26.1,185.9,39,185.9,87.2,185.9C628.4,396.2,688.2,396.2,667.4,210.3z"/>
		<path fill="#007E97" d="M580.2,391c-22.9,0-48.8,0-66.3-20.1c-22.1-25.4-27.2-77.7-15.7-159.9c1.2-8.9,3.5-17.1,6.7-24.3l0.8-1.7&#10;&#9;&#9;&#9;l-0.5-1.8c-7.7-26.4-7.9-43.1-7.5-50.2c15.7,0.3,29.3,11.7,36.1,18.5l2.5,2.5l3.3-1.4c11.5-4.8,25.2-7.3,40.7-7.3&#10;&#9;&#9;&#9;c15.5,0,29.3,2.4,40.9,7.2l3.2,1.3l2.5-2.5c6.8-6.8,20.4-18.1,36-18.4c0.4,7.1,0.1,23.7-7.3,49.4l-0.5,1.8l0.8,1.7&#10;&#9;&#9;&#9;c3.2,7.4,5.4,15.8,6.4,24.9c9.4,84,3.2,136.8-18.8,161.4C626.7,391,603.1,391,580.2,391z"/>
		<path fill="#FBB040" d="M580.2,199.5l-26.3,37.4c0,0,22,7.5,26.3,30.8c4.3-23.3,26.3-30.8,26.3-30.8L580.2,199.5z"/>
		<g>
			<g>
				<path d="M 580.200001 199.5 A 39.700001 39.700001 0 0 1 540.5 239.200001 A 39.700001 39.700001 0 0 1 500.799999 199.5 A 39.700001 39.700001 0 0 1 540.5 159.799999 A 39.700001 39.700001 0 0 1 580.200001 199.5 Z" fill="#7DD0DE"/>
				<path d="M 572.4 199.5 A 31.9 31.9 0 0 1 540.5 231.4 A 31.9 31.9 0 0 1 508.6 199.5 A 31.9 31.9 0 0 1 540.5 167.6 A 31.9 31.9 0 0 1 572.4 199.5 Z" fill="#FFFFFF"/>
				<path d="M 557.9 199.5 A 17.4 17.4 0 0 1 540.5 216.9 A 17.4 17.4 0 0 1 523.1 199.5 A 17.4 17.4 0 0 1 540.5 182.1 A 17.4 17.4 0 0 1 557.9 199.5 Z" fill="#050605"/>
				<path d="M 546.7 199.5 A 6.2 6.2 0 0 1 540.5 205.7 A 6.2 6.2 0 0 1 534.3 199.5 A 6.2 6.2 0 0 1 540.5 193.3 A 6.2 6.2 0 0 1 546.7 199.5 Z" fill="#FBB040"/>
			</g>
			<g>
				<path d="M 659.700001 199.5 A 39.700001 39.700001 0 0 1 620 239.200001 A 39.700001 39.700001 0 0 1 580.299999 199.5 A 39.700001 39.700001 0 0 1 620 159.799999 A 39.700001 39.700001 0 0 1 659.700001 199.5 Z" fill="#7DD0DE"/>
				<path d="M 651.9 199.5 A 31.9 31.9 0 0 1 620 231.4 A 31.9 31.9 0 0 1 588.1 199.5 A 31.9 31.9 0 0 1 620 167.6 A 31.9 31.9 0 0 1 651.9 199.5 Z" fill="#FFFFFF"/>
				<path d="M 637.4 199.5 A 17.4 17.4 0 0 1 620 216.9 A 17.4 17.4 0 0 1 602.6 199.5 A 17.4 17.4 0 0 1 620 182.1 A 17.4 17.4 0 0 1 637.4 199.5 Z" fill="#050605"/>
				<path d="M 626.2 199.5 A 6.2 6.2 0 0 1 620 205.7 A 6.2 6.2 0 0 1 613.8 199.5 A 6.2 6.2 0 0 1 620 193.3 A 6.2 6.2 0 0 1 626.2 199.5 Z" fill="#FBB040"/>
			</g>
		</g>
		<path fill="#22A0B8" d="M580.2,274.6c-34,0-61.6,35.4-61.6,79.1c0,0.1,0,0.2,0,0.3c0.1,16.5,12.1,30.5,28.4,33.5&#10;&#9;&#9;&#9;c11.1,2,22.6,2,33.2,2c11.3,0,23.3,0,34.8-2.4c15.6-3.3,26.8-17.2,26.8-33.1c0-0.1,0-0.2,0-0.2C641.8,310,614.2,274.6,580.2,274.6&#10;&#9;&#9;&#9;z" style="fill: rgb(89, 222, 255);"/>
		<path fill="#F15A27" d="M493,217c0,0,89.1,48.9-31,149.3C461.9,366.3,468.1,231.3,493,217z"/>
		<path fill="#EF4136" d="M467.9,354.2c0.9-13,2.5-34.5,5.4-56.6c6.8-52.2,15.2-68.9,20-74.2c6.9,4.8,23.8,18.7,26,41.5&#10;&#9;&#9;&#9;C521.8,291.4,504.5,321.4,467.9,354.2z"/>
		<path fill="#F15A27" d="M667.5,217c0,0-89.1,48.9,31,149.3C698.5,366.3,692.4,231.3,667.5,217z"/>
		<path fill="#EF4136" d="M692.6,354.2c-36.6-32.8-53.9-62.8-51.4-89.3c2.2-22.8,19.1-36.7,26-41.5c4.8,5.3,13.2,21.9,20,74.2&#10;&#9;&#9;&#9;C690,319.7,691.7,341.2,692.6,354.2z"/>
	<path d="M 616.1582641601562 349.3398742675781" style="fill: rgb(247, 143, 35); fill-opacity: 1; stroke: rgb(0, 0, 0); stroke-opacity: 1; stroke-width: 0; paint-order: fill;"/></g></g><g transform="matrix(0.29780861735343933, 0.16132535040378568, -0.16132535040378568, 0.29780861735343933, 785.1634936513658, 74.42156015236236)"><path d="M 303.22076416015625 131.0129852294922 L 691.8413696289062 131.0129852294922 C 691.8413696289062 131.0129852294922 733.3478393554688 148.67535400390625 691.8413696289062 179.58444213867188 L 301.4455261230469 179.58444213867188" style="fill: rgb(0, 0, 0); fill-opacity: 1; stroke: rgb(0, 0, 0); stroke-opacity: 1; stroke-width: 10; paint-order: stroke;" transform="matrix(1, 0, 0, 1, 0, 0)"/><path d="M 286.4415588378906 179.58441162109375 C 286.4415588378906 179.58441162109375 234.33766174316406 163.6883087158203 282.0259704589844 130.1298599243164" style="fill: rgb(0, 0, 0); fill-opacity: 1; stroke: rgb(0, 0, 0); stroke-opacity: 1; stroke-width: 10; paint-order: stroke;" transform="matrix(1, 0, 0, 1, 22.961040496826172, 0.8831102848052694)"/></g><g transform="matrix(0.24524761736392975, 0.13285264372825623, -0.13285264372825623, 0.24524761736392975, 858.9937548818348, 0.06432138283116728)"><g id="g-19" transform="matrix(1, 0, 0, 1, 0, 0)">
	<g id="g-20">
		<path class="st0" d="M687.4,556.4L652,571l-35.4-14.6L602,521l14.6-35.4L652,471l35.4,14.6L702,521L687.4,556.4z" style="fill: rgb(89, 222, 255);"/>
	</g>
</g></g><g transform="matrix(0.24524767696857452, 0.13285264372825623, -0.13285264372825623, 0.24524767696857452, 780.925273436522, -41.469858304668946)"><g id="g-21" transform="matrix(1, 0, 0, 1, 0, 0)">
	<g id="g-22">
		<path class="st0" d="M687.4,556.4L652,571l-35.4-14.6L602,521l14.6-35.4L652,471l35.4,14.6L702,521L687.4,556.4z" style="fill: rgb(89, 222, 255);"/>
	</g>
</g></g><g transform="matrix(0.24524761736392975, 0.13285264372825623, -0.13285264372825623, 0.24524761736392975, 821.5793872060533, -20.203310147930665)"><g id="g-23" transform="matrix(1, 0, 0, 1, 0, 0)">
	<g id="g-24">
		<path class="st0" d="M687.4,556.4L652,571l-35.4-14.6L602,521l14.6-35.4L652,471l35.4,14.6L702,521L687.4,556.4z" style="fill: rgb(89, 222, 255);"/>
	</g>
</g></g><g transform="matrix(0.2848330140113831, -0.1832649260759354, 0.1832649260759354, 0.2848330140113831, 736.7095751943345, 347.8132074912298)"><path d="M 303.22076416015625 131.0129852294922 L 691.8413696289062 131.0129852294922 C 691.8413696289062 131.0129852294922 733.3478393554688 148.67535400390625 691.8413696289062 179.58444213867188 L 301.4455261230469 179.58444213867188" style="fill: rgb(0, 0, 0); fill-opacity: 1; stroke: rgb(0, 0, 0); stroke-opacity: 1; stroke-width: 10; paint-order: stroke;" transform="matrix(1, 0, 0, 1, 0, 0)"/><path d="M 286.4415588378906 179.58441162109375 C 286.4415588378906 179.58441162109375 234.33766174316406 163.6883087158203 282.0259704589844 130.1298599243164" style="fill: rgb(0, 0, 0); fill-opacity: 1; stroke: rgb(0, 0, 0); stroke-opacity: 1; stroke-width: 10; paint-order: stroke;" transform="matrix(1, 0, 0, 1, 22.961040496826172, 0.8831102848052694)"/></g><g transform="matrix(0.23456203937530518, -0.15092003345489502, 0.15092003345489502, 0.23456203937530518, 707.113505858397, 247.29465280372943)"><g id="g-25" transform="matrix(1, 0, 0, 1, 0, 0)">
	<g id="g-26">
		<path class="st0" d="M687.4,556.4L652,571l-35.4-14.6L602,521l14.6-35.4L652,471l35.4,14.6L702,521L687.4,556.4z" style="fill: rgb(89, 222, 255);"/>
	</g>
</g></g><g transform="matrix(0.2345620691776276, -0.15092009305953982, 0.15092009305953982, 0.2345620691776276, 633.109111327147, 295.70053659279205)"><g id="g-27" transform="matrix(1, 0, 0, 1, 0, 0)">
	<g id="g-28">
		<path class="st0" d="M687.4,556.4L652,571l-35.4-14.6L602,521l14.6-35.4L652,471l35.4,14.6L702,521L687.4,556.4z" style="fill: rgb(89, 222, 255);"/>
	</g>
</g></g><g transform="matrix(0.23456203937530518, -0.15092003345489502, 0.15092003345489502, 0.23456203937530518, 671.3293261708973, 270.3186396201357)"><g id="g-29" transform="matrix(1, 0, 0, 1, 0, 0)">
	<g id="g-30">
		<path class="st0" d="M687.4,556.4L652,571l-35.4-14.6L602,521l14.6-35.4L652,471l35.4,14.6L702,521L687.4,556.4z" style="fill: rgb(89, 222, 255);"/>
	</g>
</g></g><g transform="matrix(1.2565953731536865, 0, 0, 1.2565953731536865, 1004.0509448232408, 276.4155939658389)"><path style="fill:#424A60;" d="M50.455,8L50.455,8C49.724,3.538,39.281,0,26.5,0S3.276,3.538,2.545,8l0,0H2.5v0.5V20v0.5V21v11v0.5&#10;&#9;V33v12h0.045c0.731,4.461,11.175,8,23.955,8s23.224-3.539,23.955-8H50.5V33v-0.5V32V21v-0.5V20V8.5V8H50.455z"/><g>
	<path style="fill:#424A60;" d="M26.5,41c-13.255,0-24-3.806-24-8.5V45h0.045c0.731,4.461,11.175,8,23.955,8s23.224-3.539,23.955-8&#10;&#9;&#9;H50.5V32.5C50.5,37.194,39.755,41,26.5,41z"/>
	<path style="fill:#424A60;" d="M2.5,32v0.5c0-0.168,0.018-0.334,0.045-0.5H2.5z"/>
	<path style="fill:#424A60;" d="M50.455,32c0.027,0.166,0.045,0.332,0.045,0.5V32H50.455z"/>
</g><g>
	<path style="fill:#556080;" d="M26.5,29c-13.255,0-24-3.806-24-8.5V33h0.045c0.731,4.461,11.175,8,23.955,8s23.224-3.539,23.955-8&#10;&#9;&#9;H50.5V20.5C50.5,25.194,39.755,29,26.5,29z"/>
	<path style="fill:#556080;" d="M2.5,20v0.5c0-0.168,0.018-0.334,0.045-0.5H2.5z"/>
	<path style="fill:#556080;" d="M50.455,20c0.027,0.166,0.045,0.332,0.045,0.5V20H50.455z"/>
</g><path d="M 50.5 8.5 A 24 8.5 0 0 1 26.5 17 A 24 8.5 0 0 1 2.5 8.5 A 24 8.5 0 0 1 26.5 0 A 24 8.5 0 0 1 50.5 8.5 Z" style="fill:#7FABDA;"/><g>
	<path style="fill:#7383BF;" d="M26.5,17c-13.255,0-24-3.806-24-8.5V21h0.045c0.731,4.461,11.175,8,23.955,8s23.224-3.539,23.955-8&#10;&#9;&#9;H50.5V8.5C50.5,13.194,39.755,17,26.5,17z"/>
	<path style="fill:#7383BF;" d="M2.5,8v0.5c0-0.168,0.018-0.334,0.045-0.5H2.5z"/>
	<path style="fill:#7383BF;" d="M50.455,8C50.482,8.166,50.5,8.332,50.5,8.5V8H50.455z"/>
</g><g>
</g><g>
</g><g>
</g><g>
</g><g>
</g><g>
</g><g>
</g><g>
</g><g>
</g><g>
</g><g>
</g><g>
</g><g>
</g><g>
</g><g>
</g></g></svg>