<?xml version="1.0" encoding="utf-8"?>
<svg id="master-artboard" viewBox="0 0 1015.6466674804688 490.9830017089844" version="1.1" xmlns="http://www.w3.org/2000/svg" x="0px" y="0px" style="enable-background:new 0 0 1400 980;" width="1015.6466674804688px" height="490.9830017089844px"><rect id="ee-background" x="0" y="0" width="1015.6466674804688" height="490.9830017089844" style="fill: white; fill-opacity: 0; pointer-events: none;"/>


<g transform="matrix(1.1029877662658691, 0, 0, 1.1029877662658691, -305.1103868484497, 77.80366516113281)"><path d="M 303.22076416015625 131.0129852294922 L 691.8413696289062 131.0129852294922 C 691.8413696289062 131.0129852294922 733.3478393554688 148.67535400390625 691.8413696289062 179.58444213867188 L 301.4455261230469 179.58444213867188" style="fill: rgb(0, 0, 0); fill-opacity: 1; stroke: rgb(0, 0, 0); stroke-opacity: 1; stroke-width: 10; paint-order: stroke;" transform="matrix(1, 0, 0, 1, 0, 0)"/><path d="M 286.4415588378906 179.58441162109375 C 286.4415588378906 179.58441162109375 234.33766174316406 163.6883087158203 282.0259704589844 130.1298599243164" style="fill: rgb(0, 0, 0); fill-opacity: 1; stroke: rgb(0, 0, 0); stroke-opacity: 1; stroke-width: 10; paint-order: stroke;" transform="matrix(1, 0, 0, 1, 22.961040496826172, 0.8831102848052694)"/></g><g transform="matrix(0.3682848811149597, 0, 0, 0.3682848811149597, -177.67847156524658, 59.62237548828125)"><g id="g-1" transform="matrix(1, 0, 0, 1, 0, 0)">
	<g id="g-2">
		<path class="st0" d="M687.4,556.4L652,571l-35.4-14.6L602,521l14.6-35.4L652,471l35.4,14.6L702,521L687.4,556.4z" style="fill: rgb(17, 238, 24);"/>
	</g>
</g></g><g transform="matrix(2.451735258102417, 0, 0, 2.451735258102417, 66.67586040496826, -999.2138061523438)"><g transform="matrix(1, 0, 0, 1, 77.6934814453125, -180.96240234375)"><g transform="matrix(0.37620311975479126, 0, 0, 0.37620311975479126, -177.70925903320312, 587.758056640625)">
			<path fill="#F78F23" d="M871.4,401.8V385h-5v16.8c-12.6,9.4-9.8,17-9.8,17c6.7-0.4,8.5-4.8,8.5-4.8c0.4,4.2,3.8,6.3,3.8,6.3&#10;&#9;&#9;&#9;&#9;s3.3-2.1,3.8-6.3c0,0,1.9,4.4,8.5,4.8C881.2,418.8,884,411.2,871.4,401.8z"/>
			<path fill="#F78F23" d="M920.2,401.8V385h5v16.8c12.6,9.4,9.8,17,9.8,17c-6.7-0.4-8.5-4.8-8.5-4.8c-0.4,4.2-3.8,6.3-3.8,6.3&#10;&#9;&#9;&#9;&#9;s-3.3-2.1-3.8-6.3c0,0-1.9,4.4-8.5,4.8C910.4,418.8,907.6,411.2,920.2,401.8z"/>
			<path fill="#8066A6" d="M983,210.3c-0.2-1.6-0.4-3.3-0.7-4.9c-2.5-15.9-2.7-32.1-0.3-48c3-19.7,1.1-29.5,1.1-29.5&#10;&#9;&#9;&#9;&#9;c-9-1-17.5,1.4-24.8,5.1c-14.3,7.3-30.6,9.8-46.5,8c-5.1-0.6-10.5-0.9-16-0.9c-5.6,0-10.9,0.3-16,0.9&#10;&#9;&#9;&#9;&#9;c-15.9,1.9-32.1-0.7-46.4-7.9c-7.3-3.7-15.8-6.1-24.8-5.1c0,0-2,9.8,1.1,29.5c2.6,16.7,2.2,33.8-0.5,50.5&#10;&#9;&#9;&#9;&#9;c-0.1,0.8-0.2,1.6-0.4,2.4c-26.1,185.9,39,185.9,87.2,185.9C943.9,396.2,1003.7,396.2,983,210.3z"/>
			<path fill="#9578B6" d="M895.8,391c-22.9,0-48.8,0-66.3-20.1c-22.1-25.4-27.2-77.7-15.7-159.9c0.1-0.8,0.2-1.5,0.3-2.3&#10;&#9;&#9;&#9;&#9;c2.9-18,3.1-35.6,0.6-52.1c-1.7-11.4-1.7-19.3-1.5-23.6c5.7,0.1,11.7,1.7,17.7,4.8c11.7,6,25.1,9.1,38.7,9.1&#10;&#9;&#9;&#9;&#9;c3.6,0,7.2-0.2,10.7-0.6c4.9-0.6,10.1-0.9,15.4-0.9c5.3,0,10.5,0.3,15.4,0.9c3.5,0.4,7.1,0.6,10.6,0.6c13.7,0,27.1-3.1,38.9-9.1&#10;&#9;&#9;&#9;&#9;c6-3,12-4.6,17.7-4.7c0.3,4.4,0.3,12.3-1.5,23.7c-2.5,16.1-2.4,32.8,0.3,49.6c0.2,1.5,0.4,3.1,0.6,4.6&#10;&#9;&#9;&#9;&#9;c9.4,84,3.2,136.8-18.8,161.4C942.2,391,918.6,391,895.8,391z"/>
			<path fill="#F78F23" d="M895.8,199.5l-26.3,37.4c0,0,22,7.5,26.3,30.8c4.3-23.3,26.3-30.8,26.3-30.8L895.8,199.5z"/>
			<path fill="#FDE700" d="M895.8,252.6c-5.3-9.2-13-14.8-18.4-17.8l18.4-35.3l18.4,35.3C908.8,237.8,901.1,243.3,895.8,252.6z"/>
			<g>
				<g>
					<path fill="#B091C3" d="M895.8,199.5c0,0-7.9-43.7-68.7-41.9c0,0-26.7,64.2,13.2,79.2C887.9,254.6,895.8,199.5,895.8,199.5z"/>
					<path fill="#B091C3" d="M895.8,199.5c0,0,7.9-43.7,68.7-41.9c0,0,26.7,64.2-13.2,79.2C903.6,254.6,895.8,199.5,895.8,199.5z"/>
					<path d="M 887.9 199.5 A 31.9 31.9 0 0 1 856 231.4 A 31.9 31.9 0 0 1 824.1 199.5 A 31.9 31.9 0 0 1 856 167.6 A 31.9 31.9 0 0 1 887.9 199.5 Z" fill="#FFFFFF"/>
					<path d="M 873.4 199.5 A 17.4 17.4 0 0 1 856 216.9 A 17.4 17.4 0 0 1 838.6 199.5 A 17.4 17.4 0 0 1 856 182.1 A 17.4 17.4 0 0 1 873.4 199.5 Z" fill="#050605"/>
					<path d="M 855.999988 193.199997 A 6.2 6.2 0 0 1 849.799988 199.399997 A 6.2 6.2 0 0 1 843.599988 193.199997 A 6.2 6.2 0 0 1 849.799988 186.999997 A 6.2 6.2 0 0 1 855.999988 193.199997 Z" fill="#FFFFFF"/>
				</g>
				<g>
					<path d="M 967.4 199.5 A 31.9 31.9 0 0 1 935.5 231.4 A 31.9 31.9 0 0 1 903.6 199.5 A 31.9 31.9 0 0 1 935.5 167.6 A 31.9 31.9 0 0 1 967.4 199.5 Z" fill="#FFFFFF"/>
					<path d="M 952.9 199.5 A 17.4 17.4 0 0 1 935.5 216.9 A 17.4 17.4 0 0 1 918.1 199.5 A 17.4 17.4 0 0 1 935.5 182.1 A 17.4 17.4 0 0 1 952.9 199.5 Z" fill="#050605"/>
					<path d="M 935.499988 193.199997 A 6.2 6.2 0 0 1 929.299988 199.399997 A 6.2 6.2 0 0 1 923.099988 193.199997 A 6.2 6.2 0 0 1 929.299988 186.999997 A 6.2 6.2 0 0 1 935.499988 193.199997 Z" fill="#FFFFFF"/>
				</g>
			</g>
			<path fill="#B091C3" d="M895.8,389.5c62.6,0,61.6-35.4,61.6-79.1c0-0.1,0-0.2,0-0.3c-0.1-16.5-12.1-30.5-28.4-33.5&#10;&#9;&#9;&#9;&#9;c-11.1-2-22.6-2-33.2-2c-11.3,0-23.3,0-34.8,2.4c-15.6,3.3-26.8,17.2-26.8,33.1c0,0.1,0,0.2,0,0.2&#10;&#9;&#9;&#9;&#9;C834.2,354.1,835.6,389.5,895.8,389.5z"/>
		</g><path fill="#652F8E" d="M807.2,221.3c0,0-52.7,10-61.3,96c0,0,14.8-2.9,29.5-18.5c0,0-15.4,28.5,0,46.4c0,0,17.8-10,22.6-37.1&#10;&#9;&#9;&#9;c0,0,1.4,15.1,15,24C812.9,332.1,843.6,303.1,807.2,221.3z" transform="matrix(0.37620311975479126, 0, 0, 0.37620311975479126, -177.70925903320312, 587.758056640625)"/><path fill="#652F8E" d="M984.4,221.3c0,0,52.7,10,61.3,96c0,0-14.8-2.9-29.5-18.5c0,0,15.4,28.5,0,46.4c0,0-17.8-10-22.6-37.1&#10;&#9;&#9;&#9;c0,0-1.4,15.1-15,24C978.7,332.1,948,303.1,984.4,221.3z" transform="matrix(0.37620311975479126, 0, 0, 0.37620311975479126, -177.70925903320312, 587.758056640625)"/></g></g><g transform="matrix(0.3682848811149597, 0, 0, 0.3682848811149597, -128.6996660232544, 58.34147644042969)"><g id="g-3" transform="matrix(1, 0, 0, 1, 0, 0)">
	<g id="g-4">
		<path class="st0" d="M687.4,556.4L652,571l-35.4-14.6L602,521l14.6-35.4L652,471l35.4,14.6L702,521L687.4,556.4z" style="fill: rgb(17, 238, 24);"/>
	</g>
</g></g><g transform="matrix(0.3682848811149597, 0, 0, 0.3682848811149597, -81.56214618682861, 58.97613525390625)"><g id="g-5" transform="matrix(1, 0, 0, 1, 0, 0)">
	<g id="g-6">
		<path class="st0" d="M687.4,556.4L652,571l-35.4-14.6L602,521l14.6-35.4L652,471l35.4,14.6L702,521L687.4,556.4z" style="fill: rgb(17, 238, 24);"/>
	</g>
</g></g><g transform="matrix(0.3682848811149597, 0, 0, 0.3682848811149597, -31.712910652160645, 58.97613525390625)"><g id="g-7" transform="matrix(1, 0, 0, 1, 0, 0)">
	<g id="g-9">
		<path class="st0" d="M687.4,556.4L652,571l-35.4-14.6L602,521l14.6-35.4L652,471l35.4,14.6L702,521L687.4,556.4z" style="fill: rgb(17, 238, 24);"/>
	</g>
</g></g><g transform="matrix(0.3682848811149597, 0, 0, 0.3682848811149597, 21.482680320739746, 58.97613525390625)"><g id="g-10" transform="matrix(1, 0, 0, 1, 0, 0)">
	<g id="g-11">
		<path class="st0" d="M687.4,556.4L652,571l-35.4-14.6L602,521l14.6-35.4L652,471l35.4,14.6L702,521L687.4,556.4z" style="fill: rgb(17, 238, 24);"/>
	</g>
</g></g><g transform="matrix(0.3682848811149597, 0, 0, 0.3682848811149597, 74.2167158126831, 58.97613525390625)"><g id="g-12" transform="matrix(1, 0, 0, 1, 0, 0)">
	<g id="g-13">
		<path class="st0" d="M687.4,556.4L652,571l-35.4-14.6L602,521l14.6-35.4L652,471l35.4,14.6L702,521L687.4,556.4z" style="fill: rgb(17, 238, 24);"/>
	</g>
</g></g><g transform="matrix(0.3682848811149597, 0, 0, 0.3682848811149597, 128.22004222869873, 58.97615051269531)"><g id="g-14" transform="matrix(1, 0, 0, 1, 0, 0)">
	<g id="g-15">
		<path class="st0" d="M687.4,556.4L652,571l-35.4-14.6L602,521l14.6-35.4L652,471l35.4,14.6L702,521L687.4,556.4z" style="fill: rgb(17, 238, 24);"/>
	</g>
</g></g><g transform="matrix(0.3682848811149597, 0, 0, 0.3682848811149597, 184.30044078826904, 58.34147644042969)"><g id="g-16" transform="matrix(1, 0, 0, 1, 0, 0)">
	<g id="g-17">
		<path class="st0" d="M687.4,556.4L652,571l-35.4-14.6L602,521l14.6-35.4L652,471l35.4,14.6L702,521L687.4,556.4z" style="fill: rgb(17, 238, 24);"/>
	</g>
</g></g><g transform="matrix(1.1261353492736816, 0, 0, 1.1261353492736816, 363.85586071014404, -489.85333251953125)"><g transform="matrix(0.4076074659824372, 0, 0, 0.4076074659824372, 265.40804290771484, 536.8193588256837)">
		<path fill="#F78F23" d="M555.8,401.8V385h-5v16.8c-12.6,9.4-9.8,17-9.8,17c6.7-0.4,8.5-4.8,8.5-4.8c0.4,4.2,3.8,6.3,3.8,6.3&#10;&#9;&#9;&#9;s3.3-2.1,3.8-6.3c0,0,1.9,4.4,8.5,4.8C565.6,418.8,568.4,411.2,555.8,401.8z"/>
		<path fill="#F78F23" d="M604.6,401.8V385h5v16.8c12.6,9.4,9.8,17,9.8,17c-6.7-0.4-8.5-4.8-8.5-4.8c-0.4,4.2-3.8,6.3-3.8,6.3&#10;&#9;&#9;&#9;s-3.3-2.1-3.8-6.3c0,0-1.9,4.4-8.5,4.8C594.8,418.8,592.1,411.2,604.6,401.8z"/>
		<path fill="#037484" d="M667.4,210.3c-1.1-9.9-3.4-18.7-6.8-26.4c10.7-37.3,7-55.9,7-55.9c-19.3-2.1-35.8,11.1-44.5,19.8&#10;&#9;&#9;&#9;c-12.3-5.1-26.8-7.6-42.9-7.6c-16.2,0-30.5,2.5-42.7,7.7c-8.6-8.6-25.2-22-44.6-19.9c0,0-3.8,18.9,7.2,56.7&#10;&#9;&#9;&#9;c-3.3,7.6-5.7,16.1-7.1,25.7c-26.1,185.9,39,185.9,87.2,185.9C628.4,396.2,688.2,396.2,667.4,210.3z"/>
		<path fill="#007E97" d="M580.2,391c-22.9,0-48.8,0-66.3-20.1c-22.1-25.4-27.2-77.7-15.7-159.9c1.2-8.9,3.5-17.1,6.7-24.3l0.8-1.7&#10;&#9;&#9;&#9;l-0.5-1.8c-7.7-26.4-7.9-43.1-7.5-50.2c15.7,0.3,29.3,11.7,36.1,18.5l2.5,2.5l3.3-1.4c11.5-4.8,25.2-7.3,40.7-7.3&#10;&#9;&#9;&#9;c15.5,0,29.3,2.4,40.9,7.2l3.2,1.3l2.5-2.5c6.8-6.8,20.4-18.1,36-18.4c0.4,7.1,0.1,23.7-7.3,49.4l-0.5,1.8l0.8,1.7&#10;&#9;&#9;&#9;c3.2,7.4,5.4,15.8,6.4,24.9c9.4,84,3.2,136.8-18.8,161.4C626.7,391,603.1,391,580.2,391z"/>
		<path fill="#FBB040" d="M580.2,199.5l-26.3,37.4c0,0,22,7.5,26.3,30.8c4.3-23.3,26.3-30.8,26.3-30.8L580.2,199.5z"/>
		<g>
			<g>
				<path d="M 580.200001 199.5 A 39.700001 39.700001 0 0 1 540.5 239.200001 A 39.700001 39.700001 0 0 1 500.799999 199.5 A 39.700001 39.700001 0 0 1 540.5 159.799999 A 39.700001 39.700001 0 0 1 580.200001 199.5 Z" fill="#7DD0DE"/>
				<path d="M 572.4 199.5 A 31.9 31.9 0 0 1 540.5 231.4 A 31.9 31.9 0 0 1 508.6 199.5 A 31.9 31.9 0 0 1 540.5 167.6 A 31.9 31.9 0 0 1 572.4 199.5 Z" fill="#FFFFFF"/>
				<path d="M 557.9 199.5 A 17.4 17.4 0 0 1 540.5 216.9 A 17.4 17.4 0 0 1 523.1 199.5 A 17.4 17.4 0 0 1 540.5 182.1 A 17.4 17.4 0 0 1 557.9 199.5 Z" fill="#050605"/>
				<path d="M 546.7 199.5 A 6.2 6.2 0 0 1 540.5 205.7 A 6.2 6.2 0 0 1 534.3 199.5 A 6.2 6.2 0 0 1 540.5 193.3 A 6.2 6.2 0 0 1 546.7 199.5 Z" fill="#FBB040"/>
			</g>
			<g>
				<path d="M 659.700001 199.5 A 39.700001 39.700001 0 0 1 620 239.200001 A 39.700001 39.700001 0 0 1 580.299999 199.5 A 39.700001 39.700001 0 0 1 620 159.799999 A 39.700001 39.700001 0 0 1 659.700001 199.5 Z" fill="#7DD0DE"/>
				<path d="M 651.9 199.5 A 31.9 31.9 0 0 1 620 231.4 A 31.9 31.9 0 0 1 588.1 199.5 A 31.9 31.9 0 0 1 620 167.6 A 31.9 31.9 0 0 1 651.9 199.5 Z" fill="#FFFFFF"/>
				<path d="M 637.4 199.5 A 17.4 17.4 0 0 1 620 216.9 A 17.4 17.4 0 0 1 602.6 199.5 A 17.4 17.4 0 0 1 620 182.1 A 17.4 17.4 0 0 1 637.4 199.5 Z" fill="#050605"/>
				<path d="M 626.2 199.5 A 6.2 6.2 0 0 1 620 205.7 A 6.2 6.2 0 0 1 613.8 199.5 A 6.2 6.2 0 0 1 620 193.3 A 6.2 6.2 0 0 1 626.2 199.5 Z" fill="#FBB040"/>
			</g>
		</g>
		<path fill="#22A0B8" d="M580.2,274.6c-34,0-61.6,35.4-61.6,79.1c0,0.1,0,0.2,0,0.3c0.1,16.5,12.1,30.5,28.4,33.5&#10;&#9;&#9;&#9;c11.1,2,22.6,2,33.2,2c11.3,0,23.3,0,34.8-2.4c15.6-3.3,26.8-17.2,26.8-33.1c0-0.1,0-0.2,0-0.2C641.8,310,614.2,274.6,580.2,274.6&#10;&#9;&#9;&#9;z" style="fill: rgb(237, 8, 0);"/>
		<path fill="#F15A27" d="M493,217c0,0,89.1,48.9-31,149.3C461.9,366.3,468.1,231.3,493,217z"/>
		<path fill="#EF4136" d="M467.9,354.2c0.9-13,2.5-34.5,5.4-56.6c6.8-52.2,15.2-68.9,20-74.2c6.9,4.8,23.8,18.7,26,41.5&#10;&#9;&#9;&#9;C521.8,291.4,504.5,321.4,467.9,354.2z"/>
		<path fill="#F15A27" d="M667.5,217c0,0-89.1,48.9,31,149.3C698.5,366.3,692.4,231.3,667.5,217z"/>
		<path fill="#EF4136" d="M692.6,354.2c-36.6-32.8-53.9-62.8-51.4-89.3c2.2-22.8,19.1-36.7,26-41.5c4.8,5.3,13.2,21.9,20,74.2&#10;&#9;&#9;&#9;C690,319.7,691.7,341.2,692.6,354.2z"/>
	<path d="M 616.1582641601562 349.3398742675781" style="fill: rgb(247, 143, 35); fill-opacity: 1; stroke: rgb(0, 0, 0); stroke-opacity: 1; stroke-width: 0; paint-order: fill;"/></g></g><g transform="matrix(0.3682848811149597, 0, 0, 0.3682848811149597, 711.9580030441284, 55.6297607421875)"><g id="g-8" transform="matrix(1, 0, 0, 1, 0, 0)">
	<g id="g-18">
		<path class="st0" d="M687.4,556.4L652,571l-35.4-14.6L602,521l14.6-35.4L652,471l35.4,14.6L702,521L687.4,556.4z" style="fill: rgb(17, 238, 24);"/>
	</g>
</g></g><g transform="matrix(1.1261353492736816, 0, 0, 1.1261353492736816, 363.76922130584717, -653.017333984375)"><g transform="matrix(0.4076074659824372, 0, 0, 0.4076074659824372, 265.40804290771484, 536.8193588256837)">
		<path fill="#F78F23" d="M555.8,401.8V385h-5v16.8c-12.6,9.4-9.8,17-9.8,17c6.7-0.4,8.5-4.8,8.5-4.8c0.4,4.2,3.8,6.3,3.8,6.3&#10;&#9;&#9;&#9;s3.3-2.1,3.8-6.3c0,0,1.9,4.4,8.5,4.8C565.6,418.8,568.4,411.2,555.8,401.8z"/>
		<path fill="#F78F23" d="M604.6,401.8V385h5v16.8c12.6,9.4,9.8,17,9.8,17c-6.7-0.4-8.5-4.8-8.5-4.8c-0.4,4.2-3.8,6.3-3.8,6.3&#10;&#9;&#9;&#9;s-3.3-2.1-3.8-6.3c0,0-1.9,4.4-8.5,4.8C594.8,418.8,592.1,411.2,604.6,401.8z"/>
		<path fill="#037484" d="M667.4,210.3c-1.1-9.9-3.4-18.7-6.8-26.4c10.7-37.3,7-55.9,7-55.9c-19.3-2.1-35.8,11.1-44.5,19.8&#10;&#9;&#9;&#9;c-12.3-5.1-26.8-7.6-42.9-7.6c-16.2,0-30.5,2.5-42.7,7.7c-8.6-8.6-25.2-22-44.6-19.9c0,0-3.8,18.9,7.2,56.7&#10;&#9;&#9;&#9;c-3.3,7.6-5.7,16.1-7.1,25.7c-26.1,185.9,39,185.9,87.2,185.9C628.4,396.2,688.2,396.2,667.4,210.3z"/>
		<path fill="#007E97" d="M580.2,391c-22.9,0-48.8,0-66.3-20.1c-22.1-25.4-27.2-77.7-15.7-159.9c1.2-8.9,3.5-17.1,6.7-24.3l0.8-1.7&#10;&#9;&#9;&#9;l-0.5-1.8c-7.7-26.4-7.9-43.1-7.5-50.2c15.7,0.3,29.3,11.7,36.1,18.5l2.5,2.5l3.3-1.4c11.5-4.8,25.2-7.3,40.7-7.3&#10;&#9;&#9;&#9;c15.5,0,29.3,2.4,40.9,7.2l3.2,1.3l2.5-2.5c6.8-6.8,20.4-18.1,36-18.4c0.4,7.1,0.1,23.7-7.3,49.4l-0.5,1.8l0.8,1.7&#10;&#9;&#9;&#9;c3.2,7.4,5.4,15.8,6.4,24.9c9.4,84,3.2,136.8-18.8,161.4C626.7,391,603.1,391,580.2,391z"/>
		<path fill="#FBB040" d="M580.2,199.5l-26.3,37.4c0,0,22,7.5,26.3,30.8c4.3-23.3,26.3-30.8,26.3-30.8L580.2,199.5z"/>
		<g>
			<g>
				<path d="M 580.200001 199.5 A 39.700001 39.700001 0 0 1 540.5 239.200001 A 39.700001 39.700001 0 0 1 500.799999 199.5 A 39.700001 39.700001 0 0 1 540.5 159.799999 A 39.700001 39.700001 0 0 1 580.200001 199.5 Z" fill="#7DD0DE"/>
				<path d="M 572.4 199.5 A 31.9 31.9 0 0 1 540.5 231.4 A 31.9 31.9 0 0 1 508.6 199.5 A 31.9 31.9 0 0 1 540.5 167.6 A 31.9 31.9 0 0 1 572.4 199.5 Z" fill="#FFFFFF"/>
				<path d="M 557.9 199.5 A 17.4 17.4 0 0 1 540.5 216.9 A 17.4 17.4 0 0 1 523.1 199.5 A 17.4 17.4 0 0 1 540.5 182.1 A 17.4 17.4 0 0 1 557.9 199.5 Z" fill="#050605"/>
				<path d="M 546.7 199.5 A 6.2 6.2 0 0 1 540.5 205.7 A 6.2 6.2 0 0 1 534.3 199.5 A 6.2 6.2 0 0 1 540.5 193.3 A 6.2 6.2 0 0 1 546.7 199.5 Z" fill="#FBB040"/>
			</g>
			<g>
				<path d="M 659.700001 199.5 A 39.700001 39.700001 0 0 1 620 239.200001 A 39.700001 39.700001 0 0 1 580.299999 199.5 A 39.700001 39.700001 0 0 1 620 159.799999 A 39.700001 39.700001 0 0 1 659.700001 199.5 Z" fill="#7DD0DE"/>
				<path d="M 651.9 199.5 A 31.9 31.9 0 0 1 620 231.4 A 31.9 31.9 0 0 1 588.1 199.5 A 31.9 31.9 0 0 1 620 167.6 A 31.9 31.9 0 0 1 651.9 199.5 Z" fill="#FFFFFF"/>
				<path d="M 637.4 199.5 A 17.4 17.4 0 0 1 620 216.9 A 17.4 17.4 0 0 1 602.6 199.5 A 17.4 17.4 0 0 1 620 182.1 A 17.4 17.4 0 0 1 637.4 199.5 Z" fill="#050605"/>
				<path d="M 626.2 199.5 A 6.2 6.2 0 0 1 620 205.7 A 6.2 6.2 0 0 1 613.8 199.5 A 6.2 6.2 0 0 1 620 193.3 A 6.2 6.2 0 0 1 626.2 199.5 Z" fill="#FBB040"/>
			</g>
		</g>
		<path fill="#22A0B8" d="M580.2,274.6c-34,0-61.6,35.4-61.6,79.1c0,0.1,0,0.2,0,0.3c0.1,16.5,12.1,30.5,28.4,33.5&#10;&#9;&#9;&#9;c11.1,2,22.6,2,33.2,2c11.3,0,23.3,0,34.8-2.4c15.6-3.3,26.8-17.2,26.8-33.1c0-0.1,0-0.2,0-0.2C641.8,310,614.2,274.6,580.2,274.6&#10;&#9;&#9;&#9;z" style="fill: rgb(237, 8, 0);"/>
		<path fill="#F15A27" d="M493,217c0,0,89.1,48.9-31,149.3C461.9,366.3,468.1,231.3,493,217z"/>
		<path fill="#EF4136" d="M467.9,354.2c0.9-13,2.5-34.5,5.4-56.6c6.8-52.2,15.2-68.9,20-74.2c6.9,4.8,23.8,18.7,26,41.5&#10;&#9;&#9;&#9;C521.8,291.4,504.5,321.4,467.9,354.2z"/>
		<path fill="#F15A27" d="M667.5,217c0,0-89.1,48.9,31,149.3C698.5,366.3,692.4,231.3,667.5,217z"/>
		<path fill="#EF4136" d="M692.6,354.2c-36.6-32.8-53.9-62.8-51.4-89.3c2.2-22.8,19.1-36.7,26-41.5c4.8,5.3,13.2,21.9,20,74.2&#10;&#9;&#9;&#9;C690,319.7,691.7,341.2,692.6,354.2z"/>
	<path d="M 616.1582641601562 349.3398742675781" style="fill: rgb(247, 143, 35); fill-opacity: 1; stroke: rgb(0, 0, 0); stroke-opacity: 1; stroke-width: 0; paint-order: fill;"/></g></g><g transform="matrix(0.3682848811149597, 0, 0, 0.3682848811149597, 711.8713941574097, -107.5342025756836)"><g id="g-19" transform="matrix(1, 0, 0, 1, 0, 0)">
	<g id="g-20">
		<path class="st0" d="M687.4,556.4L652,571l-35.4-14.6L602,521l14.6-35.4L652,471l35.4,14.6L702,521L687.4,556.4z" style="fill: rgb(17, 238, 24);"/>
	</g>
</g></g><path fill="#F78F23" d="M1180.6,821.9v-27.6h-8.2v27.6c-20.7,15.5-16.1,28-16.1,28c11-0.7,14.1-7.9,14.1-7.9&#10;&#9;&#9;&#9;c0.7,6.9,6.2,10.3,6.2,10.3s5.5-3.4,6.2-10.3c0,0,3.1,7.2,14.1,7.9C1196.8,849.9,1201.3,837.4,1180.6,821.9z" transform="matrix(0.5235245227813721, 0, 0, 0.5235245227813721, 297.9009656906128, 32.757354736328125)"/><path fill="#F78F23" d="M1246.9,821.9v-27.6h8.2v27.6c20.7,15.5,16.1,28,16.1,28c-11-0.7-14.1-7.9-14.1-7.9&#10;&#9;&#9;&#9;c-0.7,6.9-6.2,10.3-6.2,10.3s-5.5-3.4-6.2-10.3c0,0-3.1,7.2-14.1,7.9C1230.7,849.9,1226.2,837.4,1246.9,821.9z" transform="matrix(0.5235245227813721, 0, 0, 0.5235245227813721, 297.9009656906128, 32.757354736328125)"/><path fill="#014B7D" d="M1149.5,679.4c-10.4-4-71.8-77.8-71.8-101.7c0,0-12.7,48.8,7,66.3l-23.4-22.4c0,0-3.8,40.2,26.6,57.8&#10;&#9;&#9;&#9;l-20.9-1.9c0,0,14.6,27.7,45,32.1l-19,9.1c0,0,26.4,22.1,56.6,4.9C1179.6,706.5,1149.5,679.4,1149.5,679.4z" transform="matrix(0.5235245227813721, 0, 0, 0.5235245227813721, 297.9009656906128, 32.757354736328125)"/><path fill="#033956" d="M1149.5,679.4c-6.7-2.5-34.4-33.9-53.4-62.4l0,0c0,0-0.5,30.9,11.7,43.8l-22.9-6.8c0,0,7.9,23.2,27.1,30.5&#10;&#9;&#9;&#9;l-20.5,3.5c0,0,18.8,17,34.7,18.8l-11.5,14.2c0,0,24.3,1.7,41.5-2.1C1174.5,701.8,1149.5,679.4,1149.5,679.4z" transform="matrix(0.5235245227813721, 0, 0, 0.5235245227813721, 297.9009656906128, 32.757354736328125)"/><path fill="#014B7D" d="M1278,679.4c10.4-4,71.8-77.8,71.8-101.7c0,0,12.7,48.8-7,66.3l23.4-22.4c0,0,3.8,40.2-26.6,57.8l20.9-1.9&#10;&#9;&#9;&#9;c0,0-14.6,27.7-45,32.1l19,9.1c0,0-26.4,22.1-56.6,4.9C1247.8,706.5,1278,679.4,1278,679.4z" transform="matrix(0.5235245227813721, 0, 0, 0.5235245227813721, 297.9009656906128, 32.757354736328125)"/><path fill="#033956" d="M1278,679.4c6.7-2.5,34.4-33.9,53.4-62.4l0,0c0,0,0.5,30.9-11.7,43.8l22.9-6.8c0,0-7.9,23.2-27.1,30.5&#10;&#9;&#9;&#9;l20.5,3.5c0,0-18.8,17-34.7,18.8l11.5,14.2c0,0-24.3,1.7-41.5-2.1C1253,701.8,1278,679.4,1278,679.4z" transform="matrix(0.5235245227813721, 0, 0, 0.5235245227813721, 297.9009656906128, 32.757354736328125)"/><g transform="matrix(0.5235245227813721, 0, 0, 0.5235245227813721, 297.9009656906128, 32.757354736328125)">
				<path fill="#076BAE" d="M1292,651.6c-0.4-3.5-0.9-6.8-1.6-9.9c-2.2-9.6-2.5-19.4-1.4-29.1c2.6-23.2-6.2-34.9-6.2-34.9&#10;&#9;&#9;&#9;&#9;&#9;c-9.2,3.9-15.8,6.8-21.3,10.3c-6.3,4-14,5.3-21.2,3.5c-8.1-2-17-3-26.5-3c-9.4,0-18.1,1-26.1,2.9c-7.5,1.8-15.3,0.4-21.8-3.8&#10;&#9;&#9;&#9;&#9;&#9;c-5.3-3.5-11.7-6.4-21.1-10c0,0-8.9,11.9-6.1,35.5c1.2,10.1,0.6,20.2-1.6,30.1c-0.6,2.7-1.1,5.4-1.5,8.3&#10;&#9;&#9;&#9;&#9;&#9;c-23.4,166.9,35,166.9,78.2,166.9C1257,818.5,1310.7,818.5,1292,651.6z"/>
				<path fill="#FDE700" d="M1213.7,641.8l-23.6,33.6c0,0,19.8,6.7,23.6,27.7c3.8-21,23.6-27.7,23.6-27.7L1213.7,641.8z"/>
				<g>
					<g>
						<path d="M 1213.799976 641.799988 A 35.700001 35.700001 0 0 1 1178.099976 677.499989 A 35.700001 35.700001 0 0 1 1142.399975 641.799988 A 35.700001 35.700001 0 0 1 1178.099976 606.099987 A 35.700001 35.700001 0 0 1 1213.799976 641.799988 Z" fill="#46C4D9"/>
						<path d="M 1206.699976 641.799988 A 28.6 28.6 0 0 1 1178.099976 670.399988 A 28.6 28.6 0 0 1 1149.499975 641.799988 A 28.6 28.6 0 0 1 1178.099976 613.199987 A 28.6 28.6 0 0 1 1206.699976 641.799988 Z" fill="#FFFFFF"/>
						<path d="M 1193.699976 641.799988 A 15.6 15.6 0 0 1 1178.099976 657.399988 A 15.6 15.6 0 0 1 1162.499975 641.799988 A 15.6 15.6 0 0 1 1178.099976 626.199987 A 15.6 15.6 0 0 1 1193.699976 641.799988 Z" fill="#050605"/>
						<path d="M 1189.299951 647.400024 A 5.6 5.6 0 0 1 1183.699951 653.000024 A 5.6 5.6 0 0 1 1178.099951 647.400024 A 5.6 5.6 0 0 1 1183.699951 641.800025 A 5.6 5.6 0 0 1 1189.299951 647.400024 Z" fill="#FDE700"/>
					</g>
					<g>
						<path d="M 1285.100025 641.799988 A 35.700001 35.700001 0 0 1 1249.400024 677.499989 A 35.700001 35.700001 0 0 1 1213.700024 641.799988 A 35.700001 35.700001 0 0 1 1249.400024 606.099987 A 35.700001 35.700001 0 0 1 1285.100025 641.799988 Z" fill="#46C4D9"/>
						<path d="M 1278.000025 641.799988 A 28.6 28.6 0 0 1 1249.400024 670.399988 A 28.6 28.6 0 0 1 1220.800024 641.799988 A 28.6 28.6 0 0 1 1249.400024 613.199987 A 28.6 28.6 0 0 1 1278.000025 641.799988 Z" fill="#FFFFFF"/>
						<path d="M 1265.000025 641.799988 A 15.6 15.6 0 0 1 1249.400024 657.399988 A 15.6 15.6 0 0 1 1233.800024 641.799988 A 15.6 15.6 0 0 1 1249.400024 626.199987 A 15.6 15.6 0 0 1 1265.000025 641.799988 Z" fill="#050605"/>
						<path d="M 1260.6 647.400024 A 5.6 5.6 0 0 1 1255 653.000024 A 5.6 5.6 0 0 1 1249.4 647.400024 A 5.6 5.6 0 0 1 1255 641.800025 A 5.6 5.6 0 0 1 1260.6 647.400024 Z" fill="#FDE700"/>
					</g>
				</g>
			</g><g transform="matrix(0.5235245227813721, 0, 0, 0.5235245227813721, 297.9009656906128, 32.757354736328125)">
				<g>
					<path fill="#03577C" d="M1215.2,739.7c1.9,1.6,3.2,5.2,3.2,9.4c0,5.7-2.4,10.3-5.4,10.3c-3,0-5.4-4.6-5.4-10.3&#10;&#9;&#9;&#9;&#9;&#9;&#9;c0-4.2,1.3-7.8,3.2-9.4c-2.8,1.8-4.9,6.9-4.9,12.9c0,7.5,3.2,13.6,7.1,13.6s7.1-6.1,7.1-13.6&#10;&#9;&#9;&#9;&#9;&#9;&#9;C1220.1,746.6,1218,741.5,1215.2,739.7z"/>
				</g>
				<g>
					<path fill="#03577C" d="M1198.7,740c1.6,1.5,2.5,4.8,2.2,8.5c-0.3,5.1-2.8,9-5.4,8.8s-4.5-4.4-4.1-9.5c0.3-3.7,1.6-6.8,3.4-8.2&#10;&#9;&#9;&#9;&#9;&#9;&#9;c-2.6,1.4-4.7,5.8-5.1,11.1c-0.5,6.7,2,12.2,5.4,12.5c3.5,0.2,6.6-5,7.1-11.6C1202.6,746.3,1201.1,741.7,1198.7,740z"/>
				</g>
				<g>
					<path fill="#03577C" d="M1215.2,768.6c1.9,1.4,3.2,4.5,3.2,8.1c0,4.9-2.4,8.9-5.4,8.9c-3,0-5.4-4-5.4-8.9&#10;&#9;&#9;&#9;&#9;&#9;&#9;c0-3.6,1.3-6.7,3.2-8.1c-2.8,1.5-4.9,5.9-4.9,11.1c0,6.4,3.2,11.7,7.1,11.7s7.1-5.2,7.1-11.7&#10;&#9;&#9;&#9;&#9;&#9;&#9;C1220.1,774.5,1218,770.1,1215.2,768.6z"/>
				</g>
				<g>
					<path fill="#03577C" d="M1197,764.8c1.6,1.3,2.5,4.2,2.3,7.4c-0.3,4.3-2.7,7.7-5.3,7.5c-2.6-0.2-4.5-3.8-4.2-8.2&#10;&#9;&#9;&#9;&#9;&#9;&#9;c0.2-3.2,1.6-5.9,3.3-7c-2.6,1.2-4.7,4.9-5,9.5c-0.4,5.7,2.1,10.5,5.6,10.8s6.6-4.2,7-9.9&#10;&#9;&#9;&#9;&#9;&#9;&#9;C1200.9,770.3,1199.4,766.3,1197,764.8z"/>
				</g>
				<g>
					<path fill="#03577C" d="M1215.2,792.8c1.9,1.3,3.2,4.1,3.2,7.4c0,4.5-2.4,8.2-5.4,8.2c-3,0-5.4-3.6-5.4-8.2&#10;&#9;&#9;&#9;&#9;&#9;&#9;c0-3.3,1.3-6.2,3.2-7.4c-2.8,1.4-4.9,5.4-4.9,10.2c0,5.9,3.2,10.7,7.1,10.7s7.1-4.8,7.1-10.7&#10;&#9;&#9;&#9;&#9;&#9;&#9;C1220.1,798.2,1218,794.2,1215.2,792.8z"/>
				</g>
				<g>
					<path fill="#03577C" d="M1195.6,785.7c1.6,1.2,2.6,3.8,2.4,6.8c-0.3,4-2.6,7.1-5.3,6.9c-2.6-0.2-4.5-3.6-4.3-7.5&#10;&#9;&#9;&#9;&#9;&#9;&#9;c0.2-2.9,1.5-5.4,3.3-6.4c-2.6,1.1-4.6,4.5-4.9,8.7c-0.4,5.2,2.2,9.7,5.6,9.9s6.6-3.8,6.9-9.1&#10;&#9;&#9;&#9;&#9;&#9;&#9;C1199.5,790.8,1198,787.1,1195.6,785.7z"/>
				</g>
				<g>
					<path fill="#03577C" d="M1183.4,736.2c1.5,1.6,2.2,4.9,1.8,8.6c-0.6,5-3.2,8.9-5.9,8.5c-2.6-0.3-4.2-4.7-3.6-9.7&#10;&#9;&#9;&#9;&#9;&#9;&#9;c0.5-3.7,2-6.7,3.8-8c-2.7,1.3-5,5.5-5.7,10.9c-0.8,6.6,1.3,12.3,4.8,12.7c3.4,0.4,6.9-4.6,7.7-11.2&#10;&#9;&#9;&#9;&#9;&#9;&#9;C1187,742.8,1185.7,738,1183.4,736.2z"/>
				</g>
				<g>
					<path fill="#03577C" d="M1180.4,760.9c1.5,1.4,2.3,4.3,1.9,7.5c-0.5,4.3-3.1,7.6-5.7,7.3c-2.6-0.3-4.3-4.1-3.8-8.4&#10;&#9;&#9;&#9;&#9;&#9;&#9;c0.4-3.2,1.9-5.8,3.7-6.8c-2.7,1-4.9,4.7-5.5,9.3c-0.7,5.7,1.5,10.6,5,11.1c3.4,0.4,6.8-3.8,7.5-9.5&#10;&#9;&#9;&#9;&#9;&#9;&#9;C1184.1,766.6,1182.7,762.5,1180.4,760.9z"/>
				</g>
				<g>
					<path fill="#03577C" d="M1177.9,781.6c1.5,1.3,2.4,4,2,6.9c-0.5,4-3,6.9-5.6,6.6c-2.6-0.3-4.4-3.8-3.9-7.8&#10;&#9;&#9;&#9;&#9;&#9;&#9;c0.4-2.9,1.8-5.3,3.6-6.2c-2.6,0.9-4.9,4.3-5.4,8.4c-0.6,5.2,1.6,9.8,5.1,10.2c3.4,0.4,6.8-3.5,7.4-8.7&#10;&#9;&#9;&#9;&#9;&#9;&#9;C1181.6,786.9,1180.2,783.2,1177.9,781.6z"/>
				</g>
				<g>
					<path fill="#03577C" d="M1168.6,721.4c1.5,1.6,2.2,4.9,1.8,8.6c-0.6,5-3.2,8.9-5.9,8.5c-2.6-0.3-4.2-4.7-3.6-9.7&#10;&#9;&#9;&#9;&#9;&#9;&#9;c0.5-3.7,2-6.7,3.8-8c-2.7,1.3-5,5.5-5.7,10.9c-0.8,6.6,1.3,12.3,4.8,12.7c3.4,0.4,6.9-4.6,7.7-11.2&#10;&#9;&#9;&#9;&#9;&#9;&#9;C1172.2,728,1170.9,723.2,1168.6,721.4z"/>
				</g>
				<g>
					<path fill="#03577C" d="M1165.6,746.1c1.5,1.4,2.3,4.3,1.9,7.5c-0.5,4.3-3.1,7.6-5.7,7.3c-2.6-0.3-4.3-4.1-3.8-8.4&#10;&#9;&#9;&#9;&#9;&#9;&#9;c0.4-3.2,1.9-5.8,3.7-6.8c-2.7,1-4.9,4.7-5.5,9.3c-0.7,5.7,1.5,10.6,5,11.1c3.4,0.4,6.8-3.8,7.5-9.5&#10;&#9;&#9;&#9;&#9;&#9;&#9;C1169.3,751.8,1167.9,747.7,1165.6,746.1z"/>
				</g>
				<g>
					<path fill="#03577C" d="M1153.6,715.8c1.5,1.6,2.2,4.9,1.8,8.6c-0.6,5-3.2,8.9-5.9,8.5c-2.6-0.3-4.2-4.7-3.6-9.7&#10;&#9;&#9;&#9;&#9;&#9;&#9;c0.5-3.7,2-6.7,3.8-8c-2.7,1.3-5,5.5-5.7,10.9c-0.8,6.6,1.3,12.3,4.8,12.7c3.4,0.4,6.9-4.6,7.7-11.2&#10;&#9;&#9;&#9;&#9;&#9;&#9;C1157.2,722.4,1155.9,717.7,1153.6,715.8z"/>
				</g>
				<g>
					<path fill="#03577C" d="M1150.6,740.5c1.5,1.4,2.3,4.3,1.9,7.5c-0.5,4.3-3.1,7.6-5.7,7.3c-2.6-0.3-4.3-4.1-3.8-8.4&#10;&#9;&#9;&#9;&#9;&#9;&#9;c0.4-3.2,1.9-5.8,3.7-6.8c-2.7,1-4.9,4.7-5.5,9.3c-0.7,5.7,1.5,10.6,5,11.1c3.4,0.4,6.8-3.8,7.5-9.5&#10;&#9;&#9;&#9;&#9;&#9;&#9;C1154.2,746.3,1152.9,742.2,1150.6,740.5z"/>
				</g>
				<g>
					<path fill="#03577C" d="M1163.1,766.8c1.5,1.3,2.4,4,2,6.9c-0.5,4-3,6.9-5.6,6.6c-2.6-0.3-4.4-3.8-3.9-7.8&#10;&#9;&#9;&#9;&#9;&#9;&#9;c0.4-2.9,1.8-5.3,3.6-6.2c-2.6,0.9-4.9,4.3-5.4,8.4c-0.6,5.2,1.6,9.8,5.1,10.2c3.4,0.4,6.8-3.5,7.4-8.7&#10;&#9;&#9;&#9;&#9;&#9;&#9;C1166.8,772.1,1165.4,768.4,1163.1,766.8z"/>
				</g>
				<g>
					<path fill="#03577C" d="M1227.3,740c-1.6,1.5-2.5,4.8-2.2,8.5c0.3,5.1,2.8,9,5.4,8.8s4.5-4.4,4.1-9.5c-0.3-3.7-1.6-6.8-3.4-8.2&#10;&#9;&#9;&#9;&#9;&#9;&#9;c2.6,1.4,4.7,5.8,5.1,11.1c0.5,6.7-2,12.2-5.4,12.5c-3.5,0.2-6.6-5-7.1-11.6C1223.4,746.3,1224.9,741.7,1227.3,740z"/>
				</g>
				<g>
					<path fill="#03577C" d="M1229,764.8c-1.6,1.3-2.5,4.2-2.3,7.4c0.3,4.3,2.7,7.7,5.3,7.5c2.6-0.2,4.5-3.8,4.2-8.2&#10;&#9;&#9;&#9;&#9;&#9;&#9;c-0.2-3.2-1.6-5.9-3.3-7c2.6,1.2,4.7,4.9,5,9.5c0.4,5.7-2.1,10.5-5.6,10.8s-6.6-4.2-7-9.9C1225,770.3,1226.6,766.3,1229,764.8z&#10;&#9;&#9;&#9;&#9;&#9;&#9;"/>
				</g>
				<g>
					<path fill="#03577C" d="M1230.4,785.7c-1.6,1.2-2.6,3.8-2.4,6.8c0.3,4,2.6,7.1,5.3,6.9c2.6-0.2,4.5-3.6,4.3-7.5&#10;&#9;&#9;&#9;&#9;&#9;&#9;c-0.2-2.9-1.5-5.4-3.3-6.4c2.6,1.1,4.6,4.5,4.9,8.7c0.4,5.2-2.2,9.7-5.6,9.9s-6.6-3.8-6.9-9.1&#10;&#9;&#9;&#9;&#9;&#9;&#9;C1226.4,790.8,1228,787.1,1230.4,785.7z"/>
				</g>
				<g>
					<path fill="#03577C" d="M1242.5,736.2c-1.5,1.6-2.2,4.9-1.8,8.6c0.6,5,3.2,8.9,5.9,8.5c2.6-0.3,4.2-4.7,3.6-9.7&#10;&#9;&#9;&#9;&#9;&#9;&#9;c-0.5-3.7-2-6.7-3.8-8c2.7,1.3,5,5.5,5.7,10.9c0.8,6.6-1.3,12.3-4.8,12.7c-3.4,0.4-6.9-4.6-7.7-11.2&#10;&#9;&#9;&#9;&#9;&#9;&#9;C1239,742.8,1240.2,738,1242.5,736.2z"/>
				</g>
				<g>
					<path fill="#03577C" d="M1245.6,760.9c-1.5,1.4-2.3,4.3-1.9,7.5c0.5,4.3,3.1,7.6,5.7,7.3c2.6-0.3,4.3-4.1,3.8-8.4&#10;&#9;&#9;&#9;&#9;&#9;&#9;c-0.4-3.2-1.9-5.8-3.7-6.8c2.7,1,4.9,4.7,5.5,9.3c0.7,5.7-1.5,10.6-5,11.1c-3.4,0.4-6.8-3.8-7.5-9.5&#10;&#9;&#9;&#9;&#9;&#9;&#9;C1241.9,766.6,1243.2,762.5,1245.6,760.9z"/>
				</g>
				<g>
					<path fill="#03577C" d="M1248.1,781.6c-1.5,1.3-2.4,4-2,6.9c0.5,4,3,6.9,5.6,6.6c2.6-0.3,4.4-3.8,3.9-7.8&#10;&#9;&#9;&#9;&#9;&#9;&#9;c-0.4-2.9-1.8-5.3-3.6-6.2c2.6,0.9,4.9,4.3,5.4,8.4c0.6,5.2-1.6,9.8-5.1,10.2c-3.4,0.4-6.8-3.5-7.4-8.7&#10;&#9;&#9;&#9;&#9;&#9;&#9;C1244.4,786.9,1245.8,783.2,1248.1,781.6z"/>
				</g>
				<g>
					<path fill="#03577C" d="M1257.3,721.4c-1.5,1.6-2.2,4.9-1.8,8.6c0.6,5,3.2,8.9,5.9,8.5c2.6-0.3,4.2-4.7,3.6-9.7&#10;&#9;&#9;&#9;&#9;&#9;&#9;c-0.5-3.7-2-6.7-3.8-8c2.7,1.3,5,5.5,5.7,10.9c0.8,6.6-1.3,12.3-4.8,12.7c-3.4,0.4-6.9-4.6-7.7-11.2&#10;&#9;&#9;&#9;&#9;&#9;&#9;C1253.8,728,1255,723.2,1257.3,721.4z"/>
				</g>
				<g>
					<path fill="#03577C" d="M1260.4,746.1c-1.5,1.4-2.3,4.3-1.9,7.5c0.5,4.3,3.1,7.6,5.7,7.3c2.6-0.3,4.3-4.1,3.8-8.4&#10;&#9;&#9;&#9;&#9;&#9;&#9;c-0.4-3.2-1.9-5.8-3.7-6.8c2.7,1,4.9,4.7,5.5,9.3c0.7,5.7-1.5,10.6-5,11.1c-3.4,0.4-6.8-3.8-7.5-9.5&#10;&#9;&#9;&#9;&#9;&#9;&#9;C1256.7,751.8,1258,747.7,1260.4,746.1z"/>
				</g>
				<g>
					<path fill="#03577C" d="M1272.4,715.8c-1.5,1.6-2.2,4.9-1.8,8.6c0.6,5,3.2,8.9,5.9,8.5c2.6-0.3,4.2-4.7,3.6-9.7&#10;&#9;&#9;&#9;&#9;&#9;&#9;c-0.5-3.7-2-6.7-3.8-8c2.7,1.3,5,5.5,5.7,10.9c0.8,6.6-1.3,12.3-4.8,12.7c-3.4,0.4-6.9-4.6-7.7-11.2&#10;&#9;&#9;&#9;&#9;&#9;&#9;C1268.8,722.4,1270.1,717.7,1272.4,715.8z"/>
				</g>
				<g>
					<path fill="#03577C" d="M1275.4,740.5c-1.5,1.4-2.3,4.3-1.9,7.5c0.5,4.3,3.1,7.6,5.7,7.3c2.6-0.3,4.3-4.1,3.8-8.4&#10;&#9;&#9;&#9;&#9;&#9;&#9;c-0.4-3.2-1.9-5.8-3.7-6.8c2.7,1,4.9,4.7,5.5,9.3c0.7,5.7-1.5,10.6-5,11.1c-3.4,0.4-6.8-3.8-7.5-9.5&#10;&#9;&#9;&#9;&#9;&#9;&#9;C1271.7,746.3,1273.1,742.2,1275.4,740.5z"/>
				</g>
				<g>
					<path fill="#03577C" d="M1262.9,766.8c-1.5,1.3-2.4,4-2,6.9c0.5,4,3,6.9,5.6,6.6c2.6-0.3,4.4-3.8,3.9-7.8&#10;&#9;&#9;&#9;&#9;&#9;&#9;c-0.4-2.9-1.8-5.3-3.6-6.2c2.6,0.9,4.9,4.3,5.4,8.4c0.6,5.2-1.6,9.8-5.1,10.2c-3.4,0.4-6.8-3.5-7.4-8.7&#10;&#9;&#9;&#9;&#9;&#9;&#9;C1259.2,772.1,1260.5,768.4,1262.9,766.8z"/>
				</g>
			</g><g transform="matrix(1.433350920677185, 0.8909439444541931, -0.8909439444541931, 1.433350920677185, 573.3998365402222, -224.2205810546875)"><g id="g-23" transform="matrix(1, 0, 0, 1, 0, 0)">
	<path class="st15" d="M326.6,214.6l-20.5-16.5c-1.5-1.2-2.8-0.6-2.8,1.3v7.6h-27c-2,0-3.6,1.3-3.6,2.9v13.8c0,1.6,1.6,2.9,3.6,2.9&#10;&#9;&#9;h27v7.5c0,2,1.3,2.6,2.8,1.3l20.5-16.5C328.1,217.8,328.1,215.8,326.6,214.6z" style="fill: rgb(51, 51, 51); opacity: 1;"/>
</g></g><g transform="matrix(0.3682848811149597, 0, 0, 0.3682848811149597, 559.0639600753784, 156.59759521484375)"><g id="g-21" transform="matrix(1, 0, 0, 1, 0, 0)">
	<g id="g-22">
		<path class="st0" d="M687.4,556.4L652,571l-35.4-14.6L602,521l14.6-35.4L652,471l35.4,14.6L702,521L687.4,556.4z" style="fill: rgb(17, 238, 24);"/>
	</g>
</g></g></svg>