<?xml version="1.0" encoding="utf-8"?>
<svg id="master-artboard" viewBox="0 0 478.9090881347656 344.1558837890625" version="1.1" xmlns="http://www.w3.org/2000/svg" x="0px" y="0px" style="enable-background:new 0 0 1400 980;" width="478.9090881347656px" height="344.1558837890625px"><rect id="ee-background" x="0" y="0" width="478.9090881347656" height="344.1558837890625" style="fill: white; fill-opacity: 0; pointer-events: none;"/><g transform="matrix(1, 0, 0, 1, -126.28571319580078, -409.76622009277344)"><g transform="matrix(1, 0, 0, 1, 77.6934814453125, -180.96240234375)"><g transform="matrix(0.37620311975479126, 0, 0, 0.37620311975479126, -177.70925903320312, 587.758056640625)">
			<path fill="#F78F23" d="M871.4,401.8V385h-5v16.8c-12.6,9.4-9.8,17-9.8,17c6.7-0.4,8.5-4.8,8.5-4.8c0.4,4.2,3.8,6.3,3.8,6.3&#10;&#9;&#9;&#9;&#9;s3.3-2.1,3.8-6.3c0,0,1.9,4.4,8.5,4.8C881.2,418.8,884,411.2,871.4,401.8z"/>
			<path fill="#F78F23" d="M920.2,401.8V385h5v16.8c12.6,9.4,9.8,17,9.8,17c-6.7-0.4-8.5-4.8-8.5-4.8c-0.4,4.2-3.8,6.3-3.8,6.3&#10;&#9;&#9;&#9;&#9;s-3.3-2.1-3.8-6.3c0,0-1.9,4.4-8.5,4.8C910.4,418.8,907.6,411.2,920.2,401.8z"/>
			<path fill="#8066A6" d="M983,210.3c-0.2-1.6-0.4-3.3-0.7-4.9c-2.5-15.9-2.7-32.1-0.3-48c3-19.7,1.1-29.5,1.1-29.5&#10;&#9;&#9;&#9;&#9;c-9-1-17.5,1.4-24.8,5.1c-14.3,7.3-30.6,9.8-46.5,8c-5.1-0.6-10.5-0.9-16-0.9c-5.6,0-10.9,0.3-16,0.9&#10;&#9;&#9;&#9;&#9;c-15.9,1.9-32.1-0.7-46.4-7.9c-7.3-3.7-15.8-6.1-24.8-5.1c0,0-2,9.8,1.1,29.5c2.6,16.7,2.2,33.8-0.5,50.5&#10;&#9;&#9;&#9;&#9;c-0.1,0.8-0.2,1.6-0.4,2.4c-26.1,185.9,39,185.9,87.2,185.9C943.9,396.2,1003.7,396.2,983,210.3z"/>
			<path fill="#9578B6" d="M895.8,391c-22.9,0-48.8,0-66.3-20.1c-22.1-25.4-27.2-77.7-15.7-159.9c0.1-0.8,0.2-1.5,0.3-2.3&#10;&#9;&#9;&#9;&#9;c2.9-18,3.1-35.6,0.6-52.1c-1.7-11.4-1.7-19.3-1.5-23.6c5.7,0.1,11.7,1.7,17.7,4.8c11.7,6,25.1,9.1,38.7,9.1&#10;&#9;&#9;&#9;&#9;c3.6,0,7.2-0.2,10.7-0.6c4.9-0.6,10.1-0.9,15.4-0.9c5.3,0,10.5,0.3,15.4,0.9c3.5,0.4,7.1,0.6,10.6,0.6c13.7,0,27.1-3.1,38.9-9.1&#10;&#9;&#9;&#9;&#9;c6-3,12-4.6,17.7-4.7c0.3,4.4,0.3,12.3-1.5,23.7c-2.5,16.1-2.4,32.8,0.3,49.6c0.2,1.5,0.4,3.1,0.6,4.6&#10;&#9;&#9;&#9;&#9;c9.4,84,3.2,136.8-18.8,161.4C942.2,391,918.6,391,895.8,391z"/>
			<path fill="#F78F23" d="M895.8,199.5l-26.3,37.4c0,0,22,7.5,26.3,30.8c4.3-23.3,26.3-30.8,26.3-30.8L895.8,199.5z"/>
			<path fill="#FDE700" d="M895.8,252.6c-5.3-9.2-13-14.8-18.4-17.8l18.4-35.3l18.4,35.3C908.8,237.8,901.1,243.3,895.8,252.6z"/>
			<g>
				<g>
					<path fill="#B091C3" d="M895.8,199.5c0,0-7.9-43.7-68.7-41.9c0,0-26.7,64.2,13.2,79.2C887.9,254.6,895.8,199.5,895.8,199.5z"/>
					<path fill="#B091C3" d="M895.8,199.5c0,0,7.9-43.7,68.7-41.9c0,0,26.7,64.2-13.2,79.2C903.6,254.6,895.8,199.5,895.8,199.5z"/>
					<path d="M 887.9 199.5 A 31.9 31.9 0 0 1 856 231.4 A 31.9 31.9 0 0 1 824.1 199.5 A 31.9 31.9 0 0 1 856 167.6 A 31.9 31.9 0 0 1 887.9 199.5 Z" fill="#FFFFFF"/>
					<path d="M 873.4 199.5 A 17.4 17.4 0 0 1 856 216.9 A 17.4 17.4 0 0 1 838.6 199.5 A 17.4 17.4 0 0 1 856 182.1 A 17.4 17.4 0 0 1 873.4 199.5 Z" fill="#050605"/>
					<path d="M 855.999988 193.199997 A 6.2 6.2 0 0 1 849.799988 199.399997 A 6.2 6.2 0 0 1 843.599988 193.199997 A 6.2 6.2 0 0 1 849.799988 186.999997 A 6.2 6.2 0 0 1 855.999988 193.199997 Z" fill="#FFFFFF"/>
				</g>
				<g>
					<path d="M 967.4 199.5 A 31.9 31.9 0 0 1 935.5 231.4 A 31.9 31.9 0 0 1 903.6 199.5 A 31.9 31.9 0 0 1 935.5 167.6 A 31.9 31.9 0 0 1 967.4 199.5 Z" fill="#FFFFFF"/>
					<path d="M 952.9 199.5 A 17.4 17.4 0 0 1 935.5 216.9 A 17.4 17.4 0 0 1 918.1 199.5 A 17.4 17.4 0 0 1 935.5 182.1 A 17.4 17.4 0 0 1 952.9 199.5 Z" fill="#050605"/>
					<path d="M 935.499988 193.199997 A 6.2 6.2 0 0 1 929.299988 199.399997 A 6.2 6.2 0 0 1 923.099988 193.199997 A 6.2 6.2 0 0 1 929.299988 186.999997 A 6.2 6.2 0 0 1 935.499988 193.199997 Z" fill="#FFFFFF"/>
				</g>
			</g>
			<path fill="#B091C3" d="M895.8,389.5c62.6,0,61.6-35.4,61.6-79.1c0-0.1,0-0.2,0-0.3c-0.1-16.5-12.1-30.5-28.4-33.5&#10;&#9;&#9;&#9;&#9;c-11.1-2-22.6-2-33.2-2c-11.3,0-23.3,0-34.8,2.4c-15.6,3.3-26.8,17.2-26.8,33.1c0,0.1,0,0.2,0,0.2&#10;&#9;&#9;&#9;&#9;C834.2,354.1,835.6,389.5,895.8,389.5z"/>
		</g><path fill="#652F8E" d="M807.2,221.3c0,0-52.7,10-61.3,96c0,0,14.8-2.9,29.5-18.5c0,0-15.4,28.5,0,46.4c0,0,17.8-10,22.6-37.1&#10;&#9;&#9;&#9;c0,0,1.4,15.1,15,24C812.9,332.1,843.6,303.1,807.2,221.3z" transform="matrix(0.37620311975479126, 0, 0, 0.37620311975479126, -177.70925903320312, 587.758056640625)"/><path fill="#652F8E" d="M984.4,221.3c0,0,52.7,10,61.3,96c0,0-14.8-2.9-29.5-18.5c0,0,15.4,28.5,0,46.4c0,0-17.8-10-22.6-37.1&#10;&#9;&#9;&#9;c0,0-1.4,15.1-15,24C978.7,332.1,948,303.1,984.4,221.3z" transform="matrix(0.37620311975479126, 0, 0, 0.37620311975479126, -177.70925903320312, 587.758056640625)"/></g></g><g transform="matrix(0.4498804807662964, 0, 0, 0.4498804807662964, 69.28912353515625, 29.156265258789062)"><path d="M 303.22076416015625 131.0129852294922 L 691.8413696289062 131.0129852294922 C 691.8413696289062 131.0129852294922 733.3478393554688 148.67535400390625 691.8413696289062 179.58444213867188 L 301.4455261230469 179.58444213867188" style="fill: rgb(0, 0, 0); fill-opacity: 1; stroke: rgb(0, 0, 0); stroke-opacity: 1; stroke-width: 10; paint-order: stroke;" transform="matrix(1, 0, 0, 1, 0, 0)"/><path d="M 286.4415588378906 179.58441162109375 C 286.4415588378906 179.58441162109375 234.33766174316406 163.6883087158203 282.0259704589844 130.1298599243164" style="fill: rgb(0, 0, 0); fill-opacity: 1; stroke: rgb(0, 0, 0); stroke-opacity: 1; stroke-width: 10; paint-order: stroke;" transform="matrix(1, 0, 0, 1, 22.961040496826172, 0.8831102848052694)"/></g><path d="M 229.03895568847656 341.1947937011719" style="fill: rgb(0, 0, 0); fill-opacity: 1; stroke: rgb(0, 0, 0); stroke-opacity: 1; stroke-width: 10; paint-order: fill;" transform="matrix(1, 0, 0, 1, 37.974029541015625, -329.402587890625)"/><g transform="matrix(0.3704799711704254, 0, 0, 0.3704799711704254, 108.47303009033203, -104.3967056274414)"><g id="g-5" transform="matrix(1, 0, 0, 1, 0, 0)">
	<g id="g-6">
		<path class="st0" d="M687.4,556.4L652,571l-35.4-14.6L602,521l14.6-35.4L652,471l35.4,14.6L702,521L687.4,556.4z" style="fill: rgb(255, 153, 192);"/>
	</g>
</g></g><g transform="matrix(0.3704799711704254, 0, 0, 0.3704799711704254, -8.981514930725098, -103.5135612487793)"><g id="g-1" transform="matrix(1, 0, 0, 1, 0, 0)">
	<g id="g-2">
		<path class="st0" d="M687.4,556.4L652,571l-35.4-14.6L602,521l14.6-35.4L652,471l35.4,14.6L702,521L687.4,556.4z" style="fill: rgb(17, 238, 24);"/>
	</g>
</g></g><g transform="matrix(0.3704799711704254, 0, 0, 0.3704799711704254, 51.95355224609375, -104.39667129516602)"><g id="g-3" transform="matrix(1, 0, 0, 1, 0, 0)">
	<g id="g-4">
		<path class="st0" d="M687.4,556.4L652,571l-35.4-14.6L602,521l14.6-35.4L652,471l35.4,14.6L702,521L687.4,556.4z" style="fill: rgb(106, 202, 204);"/>
	</g>
</g></g><g transform="matrix(0.4593217670917511, 0, 0, 0.4593217670917511, 209.99304962158203, -189.38558197021484)"><g transform="matrix(0.4076074659824372, 0, 0, 0.4076074659824372, 265.40804290771484, 536.8193588256837)">
		<path fill="#F78F23" d="M555.8,401.8V385h-5v16.8c-12.6,9.4-9.8,17-9.8,17c6.7-0.4,8.5-4.8,8.5-4.8c0.4,4.2,3.8,6.3,3.8,6.3&#10;&#9;&#9;&#9;s3.3-2.1,3.8-6.3c0,0,1.9,4.4,8.5,4.8C565.6,418.8,568.4,411.2,555.8,401.8z"/>
		<path fill="#F78F23" d="M604.6,401.8V385h5v16.8c12.6,9.4,9.8,17,9.8,17c-6.7-0.4-8.5-4.8-8.5-4.8c-0.4,4.2-3.8,6.3-3.8,6.3&#10;&#9;&#9;&#9;s-3.3-2.1-3.8-6.3c0,0-1.9,4.4-8.5,4.8C594.8,418.8,592.1,411.2,604.6,401.8z"/>
		<path fill="#037484" d="M667.4,210.3c-1.1-9.9-3.4-18.7-6.8-26.4c10.7-37.3,7-55.9,7-55.9c-19.3-2.1-35.8,11.1-44.5,19.8&#10;&#9;&#9;&#9;c-12.3-5.1-26.8-7.6-42.9-7.6c-16.2,0-30.5,2.5-42.7,7.7c-8.6-8.6-25.2-22-44.6-19.9c0,0-3.8,18.9,7.2,56.7&#10;&#9;&#9;&#9;c-3.3,7.6-5.7,16.1-7.1,25.7c-26.1,185.9,39,185.9,87.2,185.9C628.4,396.2,688.2,396.2,667.4,210.3z"/>
		<path fill="#007E97" d="M580.2,391c-22.9,0-48.8,0-66.3-20.1c-22.1-25.4-27.2-77.7-15.7-159.9c1.2-8.9,3.5-17.1,6.7-24.3l0.8-1.7&#10;&#9;&#9;&#9;l-0.5-1.8c-7.7-26.4-7.9-43.1-7.5-50.2c15.7,0.3,29.3,11.7,36.1,18.5l2.5,2.5l3.3-1.4c11.5-4.8,25.2-7.3,40.7-7.3&#10;&#9;&#9;&#9;c15.5,0,29.3,2.4,40.9,7.2l3.2,1.3l2.5-2.5c6.8-6.8,20.4-18.1,36-18.4c0.4,7.1,0.1,23.7-7.3,49.4l-0.5,1.8l0.8,1.7&#10;&#9;&#9;&#9;c3.2,7.4,5.4,15.8,6.4,24.9c9.4,84,3.2,136.8-18.8,161.4C626.7,391,603.1,391,580.2,391z"/>
		<path fill="#FBB040" d="M580.2,199.5l-26.3,37.4c0,0,22,7.5,26.3,30.8c4.3-23.3,26.3-30.8,26.3-30.8L580.2,199.5z"/>
		<g>
			<g>
				<path d="M 580.200001 199.5 A 39.700001 39.700001 0 0 1 540.5 239.200001 A 39.700001 39.700001 0 0 1 500.799999 199.5 A 39.700001 39.700001 0 0 1 540.5 159.799999 A 39.700001 39.700001 0 0 1 580.200001 199.5 Z" fill="#7DD0DE"/>
				<path d="M 572.4 199.5 A 31.9 31.9 0 0 1 540.5 231.4 A 31.9 31.9 0 0 1 508.6 199.5 A 31.9 31.9 0 0 1 540.5 167.6 A 31.9 31.9 0 0 1 572.4 199.5 Z" fill="#FFFFFF"/>
				<path d="M 557.9 199.5 A 17.4 17.4 0 0 1 540.5 216.9 A 17.4 17.4 0 0 1 523.1 199.5 A 17.4 17.4 0 0 1 540.5 182.1 A 17.4 17.4 0 0 1 557.9 199.5 Z" fill="#050605"/>
				<path d="M 546.7 199.5 A 6.2 6.2 0 0 1 540.5 205.7 A 6.2 6.2 0 0 1 534.3 199.5 A 6.2 6.2 0 0 1 540.5 193.3 A 6.2 6.2 0 0 1 546.7 199.5 Z" fill="#FBB040"/>
			</g>
			<g>
				<path d="M 659.700001 199.5 A 39.700001 39.700001 0 0 1 620 239.200001 A 39.700001 39.700001 0 0 1 580.299999 199.5 A 39.700001 39.700001 0 0 1 620 159.799999 A 39.700001 39.700001 0 0 1 659.700001 199.5 Z" fill="#7DD0DE"/>
				<path d="M 651.9 199.5 A 31.9 31.9 0 0 1 620 231.4 A 31.9 31.9 0 0 1 588.1 199.5 A 31.9 31.9 0 0 1 620 167.6 A 31.9 31.9 0 0 1 651.9 199.5 Z" fill="#FFFFFF"/>
				<path d="M 637.4 199.5 A 17.4 17.4 0 0 1 620 216.9 A 17.4 17.4 0 0 1 602.6 199.5 A 17.4 17.4 0 0 1 620 182.1 A 17.4 17.4 0 0 1 637.4 199.5 Z" fill="#050605"/>
				<path d="M 626.2 199.5 A 6.2 6.2 0 0 1 620 205.7 A 6.2 6.2 0 0 1 613.8 199.5 A 6.2 6.2 0 0 1 620 193.3 A 6.2 6.2 0 0 1 626.2 199.5 Z" fill="#FBB040"/>
			</g>
		</g>
		<path fill="#22A0B8" d="M580.2,274.6c-34,0-61.6,35.4-61.6,79.1c0,0.1,0,0.2,0,0.3c0.1,16.5,12.1,30.5,28.4,33.5&#10;&#9;&#9;&#9;c11.1,2,22.6,2,33.2,2c11.3,0,23.3,0,34.8-2.4c15.6-3.3,26.8-17.2,26.8-33.1c0-0.1,0-0.2,0-0.2C641.8,310,614.2,274.6,580.2,274.6&#10;&#9;&#9;&#9;z" style="fill: rgb(17, 238, 24);"/>
		<path fill="#F15A27" d="M493,217c0,0,89.1,48.9-31,149.3C461.9,366.3,468.1,231.3,493,217z"/>
		<path fill="#EF4136" d="M467.9,354.2c0.9-13,2.5-34.5,5.4-56.6c6.8-52.2,15.2-68.9,20-74.2c6.9,4.8,23.8,18.7,26,41.5&#10;&#9;&#9;&#9;C521.8,291.4,504.5,321.4,467.9,354.2z"/>
		<path fill="#F15A27" d="M667.5,217c0,0-89.1,48.9,31,149.3C698.5,366.3,692.4,231.3,667.5,217z"/>
		<path fill="#EF4136" d="M692.6,354.2c-36.6-32.8-53.9-62.8-51.4-89.3c2.2-22.8,19.1-36.7,26-41.5c4.8,5.3,13.2,21.9,20,74.2&#10;&#9;&#9;&#9;C690,319.7,691.7,341.2,692.6,354.2z"/>
	<path d="M 616.1582641601562 349.3398742675781" style="fill: rgb(247, 143, 35); fill-opacity: 1; stroke: rgb(0, 0, 0); stroke-opacity: 1; stroke-width: 0; paint-order: fill;"/></g></g><g transform="matrix(0.4593217670917511, 0, 0, 0.4593217670917511, 210.4432601928711, -120.0609359741211)"><g transform="matrix(0.4076074659824372, 0, 0, 0.4076074659824372, 265.40804290771496, 536.8193588256836)">
		<path fill="#F78F23" d="M555.8,401.8V385h-5v16.8c-12.6,9.4-9.8,17-9.8,17c6.7-0.4,8.5-4.8,8.5-4.8c0.4,4.2,3.8,6.3,3.8,6.3&#10;&#9;&#9;&#9;s3.3-2.1,3.8-6.3c0,0,1.9,4.4,8.5,4.8C565.6,418.8,568.4,411.2,555.8,401.8z"/>
		<path fill="#F78F23" d="M604.6,401.8V385h5v16.8c12.6,9.4,9.8,17,9.8,17c-6.7-0.4-8.5-4.8-8.5-4.8c-0.4,4.2-3.8,6.3-3.8,6.3&#10;&#9;&#9;&#9;s-3.3-2.1-3.8-6.3c0,0-1.9,4.4-8.5,4.8C594.8,418.8,592.1,411.2,604.6,401.8z"/>
		<path fill="#037484" d="M667.4,210.3c-1.1-9.9-3.4-18.7-6.8-26.4c10.7-37.3,7-55.9,7-55.9c-19.3-2.1-35.8,11.1-44.5,19.8&#10;&#9;&#9;&#9;c-12.3-5.1-26.8-7.6-42.9-7.6c-16.2,0-30.5,2.5-42.7,7.7c-8.6-8.6-25.2-22-44.6-19.9c0,0-3.8,18.9,7.2,56.7&#10;&#9;&#9;&#9;c-3.3,7.6-5.7,16.1-7.1,25.7c-26.1,185.9,39,185.9,87.2,185.9C628.4,396.2,688.2,396.2,667.4,210.3z"/>
		<path fill="#007E97" d="M580.2,391c-22.9,0-48.8,0-66.3-20.1c-22.1-25.4-27.2-77.7-15.7-159.9c1.2-8.9,3.5-17.1,6.7-24.3l0.8-1.7&#10;&#9;&#9;&#9;l-0.5-1.8c-7.7-26.4-7.9-43.1-7.5-50.2c15.7,0.3,29.3,11.7,36.1,18.5l2.5,2.5l3.3-1.4c11.5-4.8,25.2-7.3,40.7-7.3&#10;&#9;&#9;&#9;c15.5,0,29.3,2.4,40.9,7.2l3.2,1.3l2.5-2.5c6.8-6.8,20.4-18.1,36-18.4c0.4,7.1,0.1,23.7-7.3,49.4l-0.5,1.8l0.8,1.7&#10;&#9;&#9;&#9;c3.2,7.4,5.4,15.8,6.4,24.9c9.4,84,3.2,136.8-18.8,161.4C626.7,391,603.1,391,580.2,391z"/>
		<path fill="#FBB040" d="M580.2,199.5l-26.3,37.4c0,0,22,7.5,26.3,30.8c4.3-23.3,26.3-30.8,26.3-30.8L580.2,199.5z"/>
		<g>
			<g>
				<path d="M 580.200001 199.5 A 39.700001 39.700001 0 0 1 540.5 239.200001 A 39.700001 39.700001 0 0 1 500.799999 199.5 A 39.700001 39.700001 0 0 1 540.5 159.799999 A 39.700001 39.700001 0 0 1 580.200001 199.5 Z" fill="#7DD0DE"/>
				<path d="M 572.4 199.5 A 31.9 31.9 0 0 1 540.5 231.4 A 31.9 31.9 0 0 1 508.6 199.5 A 31.9 31.9 0 0 1 540.5 167.6 A 31.9 31.9 0 0 1 572.4 199.5 Z" fill="#FFFFFF"/>
				<path d="M 557.9 199.5 A 17.4 17.4 0 0 1 540.5 216.9 A 17.4 17.4 0 0 1 523.1 199.5 A 17.4 17.4 0 0 1 540.5 182.1 A 17.4 17.4 0 0 1 557.9 199.5 Z" fill="#050605"/>
				<path d="M 546.7 199.5 A 6.2 6.2 0 0 1 540.5 205.7 A 6.2 6.2 0 0 1 534.3 199.5 A 6.2 6.2 0 0 1 540.5 193.3 A 6.2 6.2 0 0 1 546.7 199.5 Z" fill="#FBB040"/>
			</g>
			<g>
				<path d="M 659.700001 199.5 A 39.700001 39.700001 0 0 1 620 239.200001 A 39.700001 39.700001 0 0 1 580.299999 199.5 A 39.700001 39.700001 0 0 1 620 159.799999 A 39.700001 39.700001 0 0 1 659.700001 199.5 Z" fill="#7DD0DE"/>
				<path d="M 651.9 199.5 A 31.9 31.9 0 0 1 620 231.4 A 31.9 31.9 0 0 1 588.1 199.5 A 31.9 31.9 0 0 1 620 167.6 A 31.9 31.9 0 0 1 651.9 199.5 Z" fill="#FFFFFF"/>
				<path d="M 637.4 199.5 A 17.4 17.4 0 0 1 620 216.9 A 17.4 17.4 0 0 1 602.6 199.5 A 17.4 17.4 0 0 1 620 182.1 A 17.4 17.4 0 0 1 637.4 199.5 Z" fill="#050605"/>
				<path d="M 626.2 199.5 A 6.2 6.2 0 0 1 620 205.7 A 6.2 6.2 0 0 1 613.8 199.5 A 6.2 6.2 0 0 1 620 193.3 A 6.2 6.2 0 0 1 626.2 199.5 Z" fill="#FBB040"/>
			</g>
		</g>
		<path fill="#22A0B8" d="M580.2,274.6c-34,0-61.6,35.4-61.6,79.1c0,0.1,0,0.2,0,0.3c0.1,16.5,12.1,30.5,28.4,33.5&#10;&#9;&#9;&#9;c11.1,2,22.6,2,33.2,2c11.3,0,23.3,0,34.8-2.4c15.6-3.3,26.8-17.2,26.8-33.1c0-0.1,0-0.2,0-0.2C641.8,310,614.2,274.6,580.2,274.6&#10;&#9;&#9;&#9;z" style="fill: rgb(255, 153, 192);"/>
		<path fill="#F15A27" d="M493,217c0,0,89.1,48.9-31,149.3C461.9,366.3,468.1,231.3,493,217z"/>
		<path fill="#EF4136" d="M467.9,354.2c0.9-13,2.5-34.5,5.4-56.6c6.8-52.2,15.2-68.9,20-74.2c6.9,4.8,23.8,18.7,26,41.5&#10;&#9;&#9;&#9;C521.8,291.4,504.5,321.4,467.9,354.2z"/>
		<path fill="#F15A27" d="M667.5,217c0,0-89.1,48.9,31,149.3C698.5,366.3,692.4,231.3,667.5,217z"/>
		<path fill="#EF4136" d="M692.6,354.2c-36.6-32.8-53.9-62.8-51.4-89.3c2.2-22.8,19.1-36.7,26-41.5c4.8,5.3,13.2,21.9,20,74.2&#10;&#9;&#9;&#9;C690,319.7,691.7,341.2,692.6,354.2z"/>
	</g><path d="M 502.59771728515625 677.564697265625" style="fill: rgb(247, 143, 35); fill-opacity: 1; stroke: rgb(0, 0, 0); stroke-opacity: 1; stroke-width: 0; paint-order: stroke;"/></g><g transform="matrix(0.4593217670917511, 0, 0, 0.4593217670917511, 210.4432601928711, -52.060935974121094)"><g transform="matrix(1, 0, 0, 1, 286.5733337402344, 454.05352783203125)"><g transform="matrix(0.40760746598243713, 0, 0, 0.40760746598243713, -21.165290832519588, 82.76583099365234)">
		<path fill="#F78F23" d="M555.8,401.8V385h-5v16.8c-12.6,9.4-9.8,17-9.8,17c6.7-0.4,8.5-4.8,8.5-4.8c0.4,4.2,3.8,6.3,3.8,6.3&#10;&#9;&#9;&#9;s3.3-2.1,3.8-6.3c0,0,1.9,4.4,8.5,4.8C565.6,418.8,568.4,411.2,555.8,401.8z"/>
		<path fill="#F78F23" d="M604.6,401.8V385h5v16.8c12.6,9.4,9.8,17,9.8,17c-6.7-0.4-8.5-4.8-8.5-4.8c-0.4,4.2-3.8,6.3-3.8,6.3&#10;&#9;&#9;&#9;s-3.3-2.1-3.8-6.3c0,0-1.9,4.4-8.5,4.8C594.8,418.8,592.1,411.2,604.6,401.8z"/>
		<path fill="#037484" d="M667.4,210.3c-1.1-9.9-3.4-18.7-6.8-26.4c10.7-37.3,7-55.9,7-55.9c-19.3-2.1-35.8,11.1-44.5,19.8&#10;&#9;&#9;&#9;c-12.3-5.1-26.8-7.6-42.9-7.6c-16.2,0-30.5,2.5-42.7,7.7c-8.6-8.6-25.2-22-44.6-19.9c0,0-3.8,18.9,7.2,56.7&#10;&#9;&#9;&#9;c-3.3,7.6-5.7,16.1-7.1,25.7c-26.1,185.9,39,185.9,87.2,185.9C628.4,396.2,688.2,396.2,667.4,210.3z"/>
		<path fill="#007E97" d="M580.2,391c-22.9,0-48.8,0-66.3-20.1c-22.1-25.4-27.2-77.7-15.7-159.9c1.2-8.9,3.5-17.1,6.7-24.3l0.8-1.7&#10;&#9;&#9;&#9;l-0.5-1.8c-7.7-26.4-7.9-43.1-7.5-50.2c15.7,0.3,29.3,11.7,36.1,18.5l2.5,2.5l3.3-1.4c11.5-4.8,25.2-7.3,40.7-7.3&#10;&#9;&#9;&#9;c15.5,0,29.3,2.4,40.9,7.2l3.2,1.3l2.5-2.5c6.8-6.8,20.4-18.1,36-18.4c0.4,7.1,0.1,23.7-7.3,49.4l-0.5,1.8l0.8,1.7&#10;&#9;&#9;&#9;c3.2,7.4,5.4,15.8,6.4,24.9c9.4,84,3.2,136.8-18.8,161.4C626.7,391,603.1,391,580.2,391z"/>
		<path fill="#FBB040" d="M580.2,199.5l-26.3,37.4c0,0,22,7.5,26.3,30.8c4.3-23.3,26.3-30.8,26.3-30.8L580.2,199.5z"/>
		<g>
			<g>
				<path d="M 580.200001 199.5 A 39.700001 39.700001 0 0 1 540.5 239.200001 A 39.700001 39.700001 0 0 1 500.799999 199.5 A 39.700001 39.700001 0 0 1 540.5 159.799999 A 39.700001 39.700001 0 0 1 580.200001 199.5 Z" fill="#7DD0DE"/>
				<path d="M 572.4 199.5 A 31.9 31.9 0 0 1 540.5 231.4 A 31.9 31.9 0 0 1 508.6 199.5 A 31.9 31.9 0 0 1 540.5 167.6 A 31.9 31.9 0 0 1 572.4 199.5 Z" fill="#FFFFFF"/>
				<path d="M 557.9 199.5 A 17.4 17.4 0 0 1 540.5 216.9 A 17.4 17.4 0 0 1 523.1 199.5 A 17.4 17.4 0 0 1 540.5 182.1 A 17.4 17.4 0 0 1 557.9 199.5 Z" fill="#050605"/>
				<path d="M 546.7 199.5 A 6.2 6.2 0 0 1 540.5 205.7 A 6.2 6.2 0 0 1 534.3 199.5 A 6.2 6.2 0 0 1 540.5 193.3 A 6.2 6.2 0 0 1 546.7 199.5 Z" fill="#FBB040"/>
			</g>
			<g>
				<path d="M 659.700001 199.5 A 39.700001 39.700001 0 0 1 620 239.200001 A 39.700001 39.700001 0 0 1 580.299999 199.5 A 39.700001 39.700001 0 0 1 620 159.799999 A 39.700001 39.700001 0 0 1 659.700001 199.5 Z" fill="#7DD0DE"/>
				<path d="M 651.9 199.5 A 31.9 31.9 0 0 1 620 231.4 A 31.9 31.9 0 0 1 588.1 199.5 A 31.9 31.9 0 0 1 620 167.6 A 31.9 31.9 0 0 1 651.9 199.5 Z" fill="#FFFFFF"/>
				<path d="M 637.4 199.5 A 17.4 17.4 0 0 1 620 216.9 A 17.4 17.4 0 0 1 602.6 199.5 A 17.4 17.4 0 0 1 620 182.1 A 17.4 17.4 0 0 1 637.4 199.5 Z" fill="#050605"/>
				<path d="M 626.2 199.5 A 6.2 6.2 0 0 1 620 205.7 A 6.2 6.2 0 0 1 613.8 199.5 A 6.2 6.2 0 0 1 620 193.3 A 6.2 6.2 0 0 1 626.2 199.5 Z" fill="#FBB040"/>
			</g>
		</g>
		<path fill="#22A0B8" d="M580.2,274.6c-34,0-61.6,35.4-61.6,79.1c0,0.1,0,0.2,0,0.3c0.1,16.5,12.1,30.5,28.4,33.5&#10;&#9;&#9;&#9;c11.1,2,22.6,2,33.2,2c11.3,0,23.3,0,34.8-2.4c15.6-3.3,26.8-17.2,26.8-33.1c0-0.1,0-0.2,0-0.2C641.8,310,614.2,274.6,580.2,274.6&#10;&#9;&#9;&#9;z"/>
		<path fill="#F15A27" d="M493,217c0,0,89.1,48.9-31,149.3C461.9,366.3,468.1,231.3,493,217z"/>
		<path fill="#EF4136" d="M467.9,354.2c0.9-13,2.5-34.5,5.4-56.6c6.8-52.2,15.2-68.9,20-74.2c6.9,4.8,23.8,18.7,26,41.5&#10;&#9;&#9;&#9;C521.8,291.4,504.5,321.4,467.9,354.2z"/>
		<path fill="#F15A27" d="M667.5,217c0,0-89.1,48.9,31,149.3C698.5,366.3,692.4,231.3,667.5,217z"/>
		<path fill="#EF4136" d="M692.6,354.2c-36.6-32.8-53.9-62.8-51.4-89.3c2.2-22.8,19.1-36.7,26-41.5c4.8,5.3,13.2,21.9,20,74.2&#10;&#9;&#9;&#9;C690,319.7,691.7,341.2,692.6,354.2z"/>
	</g></g></g><g transform="matrix(5.849959373474121, 0, 0, 5.849959373474121, -998.7203750610352, -1208.3961639404297)"><g id="g-7" transform="matrix(0.10787278413772583, 0.10787275433540344, -0.10787275433540344, 0.10787278413772583, 168.43957025014754, 156.41069683235122)">
	<path class="st15" d="M326.6,214.6l-20.5-16.5c-1.5-1.2-2.8-0.6-2.8,1.3v7.6h-27c-2,0-3.6,1.3-3.6,2.9v13.8c0,1.6,1.6,2.9,3.6,2.9&#10;&#9;&#9;h27v7.5c0,2,1.3,2.6,2.8,1.3l20.5-16.5C328.1,217.8,328.1,215.8,326.6,214.6z" style="fill: rgb(51, 51, 51); opacity: 1;"/>
</g></g><g id="g-8" transform="matrix(0.8924417495727539, 8.614556890051972e-8, -8.614556890051972e-8, 0.8924417495727539, 29.557533264160156, -57.59684753417969)">
	<path class="st15" d="M326.6,214.6l-20.5-16.5c-1.5-1.2-2.8-0.6-2.8,1.3v7.6h-27c-2,0-3.6,1.3-3.6,2.9v13.8c0,1.6,1.6,2.9,3.6,2.9&#10;&#9;&#9;h27v7.5c0,2,1.3,2.6,2.8,1.3l20.5-16.5C328.1,217.8,328.1,215.8,326.6,214.6z" style="fill: rgb(51, 51, 51); opacity: 1;"/>
</g><g id="g-9" transform="matrix(-0.7728714346885681, 0.44621771574020386, -0.44621771574020386, -0.7728714346885681, 360.86190032958984, 341.2255096435547)">
	<path class="st15" d="M326.6,214.6l-20.5-16.5c-1.5-1.2-2.8-0.6-2.8,1.3v7.6h-27c-2,0-3.6,1.3-3.6,2.9v13.8c0,1.6,1.6,2.9,3.6,2.9&#10;&#9;&#9;h27v7.5c0,2,1.3,2.6,2.8,1.3l20.5-16.5C328.1,217.8,328.1,215.8,326.6,214.6z" style="fill: rgb(51, 51, 51); opacity: 1;"/>
</g><g transform="matrix(-0.4498804807662964, 5.5094470578212815e-17, -5.5094470578212815e-17, -0.4498804807662964, 520.8922958374023, 337.09202575683594)"><path d="M 303.22076416015625 131.0129852294922 L 691.8413696289062 131.0129852294922 C 691.8413696289062 131.0129852294922 733.3478393554688 148.67535400390625 691.8413696289062 179.58444213867188 L 301.4455261230469 179.58444213867188" style="fill: rgb(0, 0, 0); fill-opacity: 1; stroke: rgb(0, 0, 0); stroke-opacity: 1; stroke-width: 10; paint-order: stroke;" transform="matrix(1, 0, 0, 1, 0, 0)"/><path d="M 286.4415588378906 179.58441162109375 C 286.4415588378906 179.58441162109375 234.33766174316406 163.6883087158203 282.0259704589844 130.1298599243164" style="fill: rgb(0, 0, 0); fill-opacity: 1; stroke: rgb(0, 0, 0); stroke-opacity: 1; stroke-width: 10; paint-order: stroke;" transform="matrix(1, 0, 0, 1, 22.961040496826172, 0.8831102848052694)"/></g><g transform="matrix(-0.3704799711704254, 4.537071101474576e-17, -4.537071101474576e-17, -0.3704799711704254, 481.70836639404297, 470.6449737548828)"><g id="g-10" transform="matrix(1, 0, 0, 1, 0, 0)">
	<g id="g-11">
		<path class="st0" d="M687.4,556.4L652,571l-35.4-14.6L602,521l14.6-35.4L652,471l35.4,14.6L702,521L687.4,556.4z" style="fill: rgb(204, 108, 190);"/>
	</g>
</g></g><g id="g-16" transform="matrix(-0.8924417495727539, -8.614556890051972e-8, 8.614556890051972e-8, -0.8924417495727539, 560.6239242553711, 423.84510803222656)">
	<path class="st15" d="M326.6,214.6l-20.5-16.5c-1.5-1.2-2.8-0.6-2.8,1.3v7.6h-27c-2,0-3.6,1.3-3.6,2.9v13.8c0,1.6,1.6,2.9,3.6,2.9&#10;&#9;&#9;h27v7.5c0,2,1.3,2.6,2.8,1.3l20.5-16.5C328.1,217.8,328.1,215.8,326.6,214.6z" style="fill: rgb(51, 51, 51); opacity: 1;"/>
</g><g transform="matrix(-0.3704799711704254, 4.537071101474576e-17, -4.537071101474576e-17, -0.3704799711704254, 540.3581161499023, 472.3966827392578)"><g id="g-12" transform="matrix(1, 0, 0, 1, 0, 0)">
	<g id="g-13">
		<path class="st0" d="M687.4,556.4L652,571l-35.4-14.6L602,521l14.6-35.4L652,471l35.4,14.6L702,521L687.4,556.4z" style="fill: rgb(204, 108, 190);"/>
	</g>
</g></g><g transform="matrix(-0.3704799711704254, 4.537071101474576e-17, -4.537071101474576e-17, -0.3704799711704254, 596.8775863647461, 471.51356506347656)"><g id="g-14" transform="matrix(1, 0, 0, 1, 0, 0)">
	<g id="g-15">
		<path class="st0" d="M687.4,556.4L652,571l-35.4-14.6L602,521l14.6-35.4L652,471l35.4,14.6L702,521L687.4,556.4z" style="fill: rgb(204, 108, 190);"/>
	</g>
</g></g><g transform="matrix(1, 0, 0, 1, -127.1688232421875, -259.6363220214844)"><g transform="matrix(1, 0, 0, 1, 77.6934814453125, -180.96240234375)"><g transform="matrix(0.37620311975479126, 0, 0, 0.37620311975479126, -177.70925903320312, 587.758056640625)">
			<path fill="#F78F23" d="M871.4,401.8V385h-5v16.8c-12.6,9.4-9.8,17-9.8,17c6.7-0.4,8.5-4.8,8.5-4.8c0.4,4.2,3.8,6.3,3.8,6.3&#10;&#9;&#9;&#9;&#9;s3.3-2.1,3.8-6.3c0,0,1.9,4.4,8.5,4.8C881.2,418.8,884,411.2,871.4,401.8z"/>
			<path fill="#F78F23" d="M920.2,401.8V385h5v16.8c12.6,9.4,9.8,17,9.8,17c-6.7-0.4-8.5-4.8-8.5-4.8c-0.4,4.2-3.8,6.3-3.8,6.3&#10;&#9;&#9;&#9;&#9;s-3.3-2.1-3.8-6.3c0,0-1.9,4.4-8.5,4.8C910.4,418.8,907.6,411.2,920.2,401.8z"/>
			<path fill="#8066A6" d="M983,210.3c-0.2-1.6-0.4-3.3-0.7-4.9c-2.5-15.9-2.7-32.1-0.3-48c3-19.7,1.1-29.5,1.1-29.5&#10;&#9;&#9;&#9;&#9;c-9-1-17.5,1.4-24.8,5.1c-14.3,7.3-30.6,9.8-46.5,8c-5.1-0.6-10.5-0.9-16-0.9c-5.6,0-10.9,0.3-16,0.9&#10;&#9;&#9;&#9;&#9;c-15.9,1.9-32.1-0.7-46.4-7.9c-7.3-3.7-15.8-6.1-24.8-5.1c0,0-2,9.8,1.1,29.5c2.6,16.7,2.2,33.8-0.5,50.5&#10;&#9;&#9;&#9;&#9;c-0.1,0.8-0.2,1.6-0.4,2.4c-26.1,185.9,39,185.9,87.2,185.9C943.9,396.2,1003.7,396.2,983,210.3z"/>
			<path fill="#9578B6" d="M895.8,391c-22.9,0-48.8,0-66.3-20.1c-22.1-25.4-27.2-77.7-15.7-159.9c0.1-0.8,0.2-1.5,0.3-2.3&#10;&#9;&#9;&#9;&#9;c2.9-18,3.1-35.6,0.6-52.1c-1.7-11.4-1.7-19.3-1.5-23.6c5.7,0.1,11.7,1.7,17.7,4.8c11.7,6,25.1,9.1,38.7,9.1&#10;&#9;&#9;&#9;&#9;c3.6,0,7.2-0.2,10.7-0.6c4.9-0.6,10.1-0.9,15.4-0.9c5.3,0,10.5,0.3,15.4,0.9c3.5,0.4,7.1,0.6,10.6,0.6c13.7,0,27.1-3.1,38.9-9.1&#10;&#9;&#9;&#9;&#9;c6-3,12-4.6,17.7-4.7c0.3,4.4,0.3,12.3-1.5,23.7c-2.5,16.1-2.4,32.8,0.3,49.6c0.2,1.5,0.4,3.1,0.6,4.6&#10;&#9;&#9;&#9;&#9;c9.4,84,3.2,136.8-18.8,161.4C942.2,391,918.6,391,895.8,391z"/>
			<path fill="#F78F23" d="M895.8,199.5l-26.3,37.4c0,0,22,7.5,26.3,30.8c4.3-23.3,26.3-30.8,26.3-30.8L895.8,199.5z"/>
			<path fill="#FDE700" d="M895.8,252.6c-5.3-9.2-13-14.8-18.4-17.8l18.4-35.3l18.4,35.3C908.8,237.8,901.1,243.3,895.8,252.6z"/>
			<g>
				<g>
					<path fill="#B091C3" d="M895.8,199.5c0,0-7.9-43.7-68.7-41.9c0,0-26.7,64.2,13.2,79.2C887.9,254.6,895.8,199.5,895.8,199.5z"/>
					<path fill="#B091C3" d="M895.8,199.5c0,0,7.9-43.7,68.7-41.9c0,0,26.7,64.2-13.2,79.2C903.6,254.6,895.8,199.5,895.8,199.5z"/>
					<path d="M 887.9 199.5 A 31.9 31.9 0 0 1 856 231.4 A 31.9 31.9 0 0 1 824.1 199.5 A 31.9 31.9 0 0 1 856 167.6 A 31.9 31.9 0 0 1 887.9 199.5 Z" fill="#FFFFFF"/>
					<path d="M 873.4 199.5 A 17.4 17.4 0 0 1 856 216.9 A 17.4 17.4 0 0 1 838.6 199.5 A 17.4 17.4 0 0 1 856 182.1 A 17.4 17.4 0 0 1 873.4 199.5 Z" fill="#050605"/>
					<path d="M 855.999988 193.199997 A 6.2 6.2 0 0 1 849.799988 199.399997 A 6.2 6.2 0 0 1 843.599988 193.199997 A 6.2 6.2 0 0 1 849.799988 186.999997 A 6.2 6.2 0 0 1 855.999988 193.199997 Z" fill="#FFFFFF"/>
				</g>
				<g>
					<path d="M 967.4 199.5 A 31.9 31.9 0 0 1 935.5 231.4 A 31.9 31.9 0 0 1 903.6 199.5 A 31.9 31.9 0 0 1 935.5 167.6 A 31.9 31.9 0 0 1 967.4 199.5 Z" fill="#FFFFFF"/>
					<path d="M 952.9 199.5 A 17.4 17.4 0 0 1 935.5 216.9 A 17.4 17.4 0 0 1 918.1 199.5 A 17.4 17.4 0 0 1 935.5 182.1 A 17.4 17.4 0 0 1 952.9 199.5 Z" fill="#050605"/>
					<path d="M 935.499988 193.199997 A 6.2 6.2 0 0 1 929.299988 199.399997 A 6.2 6.2 0 0 1 923.099988 193.199997 A 6.2 6.2 0 0 1 929.299988 186.999997 A 6.2 6.2 0 0 1 935.499988 193.199997 Z" fill="#FFFFFF"/>
				</g>
			</g>
			<path fill="#B091C3" d="M895.8,389.5c62.6,0,61.6-35.4,61.6-79.1c0-0.1,0-0.2,0-0.3c-0.1-16.5-12.1-30.5-28.4-33.5&#10;&#9;&#9;&#9;&#9;c-11.1-2-22.6-2-33.2-2c-11.3,0-23.3,0-34.8,2.4c-15.6,3.3-26.8,17.2-26.8,33.1c0,0.1,0,0.2,0,0.2&#10;&#9;&#9;&#9;&#9;C834.2,354.1,835.6,389.5,895.8,389.5z"/>
		</g><path fill="#652F8E" d="M807.2,221.3c0,0-52.7,10-61.3,96c0,0,14.8-2.9,29.5-18.5c0,0-15.4,28.5,0,46.4c0,0,17.8-10,22.6-37.1&#10;&#9;&#9;&#9;c0,0,1.4,15.1,15,24C812.9,332.1,843.6,303.1,807.2,221.3z" transform="matrix(0.37620311975479126, 0, 0, 0.37620311975479126, -177.70925903320312, 587.758056640625)"/><path fill="#652F8E" d="M984.4,221.3c0,0,52.7,10,61.3,96c0,0-14.8-2.9-29.5-18.5c0,0,15.4,28.5,0,46.4c0,0-17.8-10-22.6-37.1&#10;&#9;&#9;&#9;c0,0-1.4,15.1-15,24C978.7,332.1,948,303.1,984.4,221.3z" transform="matrix(0.37620311975479126, 0, 0, 0.37620311975479126, -177.70925903320312, 587.758056640625)"/></g></g><path d="M 256.4924621582031 198.42999267578125 C 256.4924621582031 196.35665893554688 256.7957763671875 194.4166717529297 257.4024658203125 192.61000061035156 C 258.0091247558594 190.80999755859375 258.8824462890625 189.22999572753906 260.0224609375 187.8699951171875 L 261.9224548339844 187.8699951171875 C 260.7957763671875 189.3766632080078 259.9491271972656 191.03334045410156 259.3824462890625 192.83999633789062 C 258.8157958984375 194.63999938964844 258.532470703125 196.4933319091797 258.532470703125 198.39999389648438 C 258.532470703125 200.27333068847656 258.82244873046875 202.10665893554688 259.4024658203125 203.89999389648438 C 259.9757995605469 205.68666076660156 260.8057861328125 207.32000732421875 261.8924560546875 208.8000030517578 L 260.0224609375 208.8000030517578 C 258.87579345703125 207.46665954589844 257.9991149902344 205.913330078125 257.3924560546875 204.13999938964844 C 256.7924499511719 202.36666870117188 256.4924621582031 200.4633331298828 256.4924621582031 198.42999267578125 ZM 270.55364990234375 191.9199981689453 C 271.1269836425781 191.9199981689453 271.6402893066406 191.96665954589844 272.0936279296875 192.05999755859375 L 271.8236389160156 193.8699951171875 C 271.2903137207031 193.75 270.8203125 193.69000244140625 270.41363525390625 193.69000244140625 C 269.3736267089844 193.69000244140625 268.4869689941406 194.1133270263672 267.7536315917969 194.9600067138672 C 267.0136413574219 195.8000030517578 266.6436462402344 196.85000610351562 266.6436462402344 198.11000061035156 L 266.6436462402344 205 L 264.6936340332031 205 L 264.6936340332031 192.16000366210938 L 266.30364990234375 192.16000366210938 L 266.5236511230469 194.5399932861328 L 266.6136474609375 194.5399932861328 C 267.0936279296875 193.6999969482422 267.6702880859375 193.05332946777344 268.3436279296875 192.60000610351562 C 269.01031494140625 192.14666748046875 269.7469787597656 191.9199981689453 270.55364990234375 191.9199981689453 ZM 279.9199523925781 205.22999572753906 C 278.01995849609375 205.22999572753906 276.51995849609375 204.65333557128906 275.4199523925781 203.5 C 274.3266296386719 202.34666442871094 273.77996826171875 200.74000549316406 273.77996826171875 198.67999267578125 C 273.77996826171875 196.6133270263672 274.2899475097656 194.97000122070312 275.3099670410156 193.75 C 276.3299560546875 192.52999877929688 277.6966247558594 191.9199981689453 279.40997314453125 191.9199981689453 C 281.0232849121094 191.9199981689453 282.296630859375 192.4499969482422 283.2299499511719 193.50999450683594 C 284.1699523925781 194.57000732421875 284.63995361328125 195.96665954589844 284.63995361328125 197.6999969482422 L 284.63995361328125 198.92999267578125 L 275.7899475097656 198.92999267578125 C 275.8299560546875 200.43666076660156 276.2132873535156 201.5800018310547 276.9399719238281 202.36000061035156 C 277.65997314453125 203.14666748046875 278.6766357421875 203.5399932861328 279.9899597167969 203.5399932861328 C 281.3699645996094 203.5399932861328 282.73663330078125 203.25 284.0899658203125 202.6699981689453 L 284.0899658203125 204.39999389648438 C 283.4032897949219 204.6999969482422 282.7532958984375 204.913330078125 282.13995361328125 205.0399932861328 C 281.5266418457031 205.1666717529297 280.78662109375 205.22999572753906 279.9199523925781 205.22999572753906 M 279.38995361328125 193.5500030517578 C 278.35662841796875 193.5500030517578 277.5332946777344 193.8866729736328 276.9199523925781 194.55999755859375 C 276.306640625 195.23333740234375 275.9466247558594 196.163330078125 275.8399658203125 197.35000610351562 L 282.5599670410156 197.35000610351562 C 282.5599670410156 196.1233367919922 282.2832946777344 195.18333435058594 281.7299499511719 194.52999877929688 C 281.18328857421875 193.8766632080078 280.4032897949219 193.5500030517578 279.38995361328125 193.5500030517578 ZM 292.8040466308594 203.61000061035156 C 294.1040344238281 203.61000061035156 295.05072021484375 203.25999450683594 295.64404296875 202.55999755859375 C 296.23736572265625 201.86666870117188 296.5540466308594 200.69667053222656 296.59405517578125 199.0500030517578 L 296.59405517578125 198.61000061035156 C 296.59405517578125 196.81666564941406 296.29071044921875 195.52333068847656 295.6840515136719 194.72999572753906 C 295.0707092285156 193.94332885742188 294.1040344238281 193.5500030517578 292.7840576171875 193.5500030517578 C 291.64404296875 193.5500030517578 290.7707214355469 193.9933319091797 290.1640319824219 194.8800048828125 C 289.557373046875 195.76666259765625 289.2540283203125 197.02000427246094 289.2540283203125 198.63999938964844 C 289.2540283203125 200.25332641601562 289.5540466308594 201.48333740234375 290.154052734375 202.3300018310547 C 290.7540283203125 203.18333435058594 291.63739013671875 203.61000061035156 292.8040466308594 203.61000061035156 M 292.5140380859375 205.22999572753906 C 290.8607177734375 205.22999572753906 289.5673828125 204.64999389648438 288.634033203125 203.49000549316406 C 287.7073669433594 202.32333374023438 287.2440490722656 200.69667053222656 287.2440490722656 198.61000061035156 C 287.2440490722656 196.50999450683594 287.7107238769531 194.8699951171875 288.64404296875 193.69000244140625 C 289.58404541015625 192.50999450683594 290.8907165527344 191.9199981689453 292.5640563964844 191.9199981689453 C 294.3173828125 191.9199981689453 295.6673889160156 192.5833282470703 296.6140441894531 193.91000366210938 L 296.7240295410156 193.91000366210938 L 297.0040283203125 192.16000366210938 L 298.5340576171875 192.16000366210938 L 298.5340576171875 210.77000427246094 L 296.59405517578125 210.77000427246094 L 296.59405517578125 205.27000427246094 C 296.59405517578125 204.49000549316406 296.63739013671875 203.82666015625 296.7240295410156 203.27999877929688 L 296.57403564453125 203.27999877929688 C 295.6740417480469 204.5800018310547 294.3207092285156 205.22999572753906 292.5140380859375 205.22999572753906 ZM 304.70025634765625 202.2100067138672 L 304.8802490234375 202.47999572753906 C 304.673583984375 203.25999450683594 304.3802490234375 204.1699981689453 304.000244140625 205.2100067138672 C 303.61358642578125 206.2433319091797 303.2135925292969 207.20333862304688 302.8002624511719 208.08999633789062 L 301.3402404785156 208.08999633789062 C 301.5469055175781 207.28334045410156 301.7802429199219 206.27999877929688 302.0402526855469 205.0800018310547 C 302.2935791015625 203.8866729736328 302.4702453613281 202.92999267578125 302.57025146484375 202.2100067138672 L 304.70025634765625 202.2100067138672 ZM 320.63677978515625 191.9199981689453 C 321.2101135253906 191.9199981689453 321.7234191894531 191.96665954589844 322.1767578125 192.05999755859375 L 321.9067687988281 193.8699951171875 C 321.3734436035156 193.75 320.9034423828125 193.69000244140625 320.49676513671875 193.69000244140625 C 319.4567565917969 193.69000244140625 318.5700988769531 194.1133270263672 317.8367614746094 194.9600067138672 C 317.0967712402344 195.8000030517578 316.7267761230469 196.85000610351562 316.7267761230469 198.11000061035156 L 316.7267761230469 205 L 314.7767639160156 205 L 314.7767639160156 192.16000366210938 L 316.38677978515625 192.16000366210938 L 316.6067810058594 194.5399932861328 L 316.69677734375 194.5399932861328 C 317.1767578125 193.6999969482422 317.75341796875 193.05332946777344 318.4267578125 192.60000610351562 C 319.09344482421875 192.14666748046875 319.8301086425781 191.9199981689453 320.63677978515625 191.9199981689453 ZM 330.0030822753906 205.22999572753906 C 328.10308837890625 205.22999572753906 326.60308837890625 204.65333557128906 325.5030822753906 203.5 C 324.4097595214844 202.34666442871094 323.86309814453125 200.74000549316406 323.86309814453125 198.67999267578125 C 323.86309814453125 196.6133270263672 324.3730773925781 194.97000122070312 325.3930969238281 193.75 C 326.4130859375 192.52999877929688 327.7797546386719 191.9199981689453 329.49310302734375 191.9199981689453 C 331.1064147949219 191.9199981689453 332.3797607421875 192.4499969482422 333.3130798339844 193.50999450683594 C 334.2530822753906 194.57000732421875 334.72308349609375 195.96665954589844 334.72308349609375 197.6999969482422 L 334.72308349609375 198.92999267578125 L 325.8730773925781 198.92999267578125 C 325.9130859375 200.43666076660156 326.2964172363281 201.5800018310547 327.0231018066406 202.36000061035156 C 327.74310302734375 203.14666748046875 328.759765625 203.5399932861328 330.0730895996094 203.5399932861328 C 331.4530944824219 203.5399932861328 332.81976318359375 203.25 334.173095703125 202.6699981689453 L 334.173095703125 204.39999389648438 C 333.4864196777344 204.6999969482422 332.83642578125 204.913330078125 332.22308349609375 205.0399932861328 C 331.6097717285156 205.1666717529297 330.8697509765625 205.22999572753906 330.0030822753906 205.22999572753906 M 329.47308349609375 193.5500030517578 C 328.43975830078125 193.5500030517578 327.6164245605469 193.8866729736328 327.0030822753906 194.55999755859375 C 326.3897705078125 195.23333740234375 326.0297546386719 196.163330078125 325.923095703125 197.35000610351562 L 332.6430969238281 197.35000610351562 C 332.6430969238281 196.1233367919922 332.3664245605469 195.18333435058594 331.8130798339844 194.52999877929688 C 331.26641845703125 193.8766632080078 330.4864196777344 193.5500030517578 329.47308349609375 193.5500030517578 ZM 346.3271789550781 201.5 C 346.3271789550781 202.69332885742188 345.8804931640625 203.6133270263672 344.9871826171875 204.25999450683594 C 344.1004943847656 204.9066619873047 342.8504943847656 205.22999572753906 341.2371826171875 205.22999572753906 C 339.53717041015625 205.22999572753906 338.21051025390625 204.9633331298828 337.2571716308594 204.42999267578125 L 337.2571716308594 202.6199951171875 C 337.8705139160156 202.93333435058594 338.530517578125 203.17999267578125 339.2371826171875 203.36000061035156 C 339.94384765625 203.5399932861328 340.6271667480469 203.6300048828125 341.28717041015625 203.6300048828125 C 342.3005065917969 203.6300048828125 343.08050537109375 203.46665954589844 343.6271667480469 203.13999938964844 C 344.173828125 202.82000732421875 344.4471740722656 202.32666015625 344.4471740722656 201.66000366210938 C 344.4471740722656 201.16000366210938 344.2304992675781 200.73333740234375 343.79718017578125 200.3800048828125 C 343.36383056640625 200.02000427246094 342.5205078125 199.60000610351562 341.2671813964844 199.1199951171875 C 340.0671691894531 198.67333984375 339.2171630859375 198.28334045410156 338.7171630859375 197.9499969482422 C 338.21051025390625 197.61666870117188 337.8338317871094 197.24000549316406 337.587158203125 196.82000732421875 C 337.34051513671875 196.39999389648438 337.2171630859375 195.89666748046875 337.2171630859375 195.30999755859375 C 337.2171630859375 194.26333618164062 337.6438293457031 193.43666076660156 338.4971618652344 192.8300018310547 C 339.3504943847656 192.22332763671875 340.5171813964844 191.9199981689453 341.9971618652344 191.9199981689453 C 343.38385009765625 191.9199981689453 344.7371826171875 192.20333862304688 346.0571594238281 192.77000427246094 L 345.3671875 194.35000610351562 C 344.0738525390625 193.81666564941406 342.9038391113281 193.5500030517578 341.857177734375 193.5500030517578 C 340.9371643066406 193.5500030517578 340.24383544921875 193.69332885742188 339.77716064453125 193.97999572753906 C 339.3038330078125 194.27333068847656 339.0671691894531 194.67333984375 339.0671691894531 195.17999267578125 C 339.0671691894531 195.52667236328125 339.15716552734375 195.82000732421875 339.337158203125 196.05999755859375 C 339.510498046875 196.3000030517578 339.7938537597656 196.52999877929688 340.1871643066406 196.75 C 340.5738525390625 196.97000122070312 341.3238525390625 197.2866668701172 342.4371643066406 197.6999969482422 C 343.9571838378906 198.25332641601562 344.98382568359375 198.80999755859375 345.5171813964844 199.3699951171875 C 346.0571594238281 199.93666076660156 346.3271789550781 200.64666748046875 346.3271789550781 201.5 ZM 355.46575927734375 205.22999572753906 C 354.6324157714844 205.22999572753906 353.86907958984375 205.07666015625 353.1757507324219 204.77000427246094 C 352.482421875 204.4633331298828 351.90240478515625 203.99000549316406 351.4357604980469 203.35000610351562 L 351.2957458496094 203.35000610351562 C 351.38909912109375 204.09666442871094 351.4357604980469 204.80667114257812 351.4357604980469 205.47999572753906 L 351.4357604980469 210.77000427246094 L 349.4857482910156 210.77000427246094 L 349.4857482910156 192.16000366210938 L 351.0657653808594 192.16000366210938 L 351.33575439453125 193.91000366210938 L 351.4357604980469 193.91000366210938 C 351.9357604980469 193.2100067138672 352.5157470703125 192.70333862304688 353.1757507324219 192.38999938964844 C 353.8424072265625 192.07666015625 354.6057434082031 191.9199981689453 355.46575927734375 191.9199981689453 C 357.1657409667969 191.9199981689453 358.4790954589844 192.50332641601562 359.40576171875 193.6699981689453 C 360.3324279785156 194.8300018310547 360.7957458496094 196.4633331298828 360.7957458496094 198.57000732421875 C 360.7957458496094 200.67666625976562 360.32574462890625 202.31333923339844 359.3857421875 203.47999572753906 C 358.44573974609375 204.64666748046875 357.13909912109375 205.22999572753906 355.46575927734375 205.22999572753906 M 355.1857604980469 193.57000732421875 C 353.8724060058594 193.57000732421875 352.92242431640625 193.93333435058594 352.33575439453125 194.66000366210938 C 351.74908447265625 195.3866729736328 351.4490966796875 196.5433349609375 351.4357604980469 198.1300048828125 L 351.4357604980469 198.57000732421875 C 351.4357604980469 200.3699951171875 351.7357482910156 201.66000366210938 352.33575439453125 202.44000244140625 C 352.9357604980469 203.22000122070312 353.8990783691406 203.61000061035156 355.2257385253906 203.61000061035156 C 356.3390808105469 203.61000061035156 357.2090759277344 203.16000366210938 357.83575439453125 202.25999450683594 C 358.4690856933594 201.36000061035156 358.7857360839844 200.1199951171875 358.7857360839844 198.5399932861328 C 358.7857360839844 196.94000244140625 358.4690856933594 195.7133331298828 357.83575439453125 194.86000061035156 C 357.2090759277344 194 356.32574462890625 193.57000732421875 355.1857604980469 193.57000732421875 ZM 368.27197265625 198.42999267578125 C 368.27197265625 200.48333740234375 367.9686279296875 202.39666748046875 367.3619689941406 204.1699981689453 C 366.7552795410156 205.94332885742188 365.8819580078125 207.48666381835938 364.741943359375 208.8000030517578 L 362.8719482421875 208.8000030517578 C 363.9586181640625 207.32666015625 364.78863525390625 205.69332885742188 365.3619689941406 203.89999389648438 C 365.94195556640625 202.10665893554688 366.2319641113281 200.27333068847656 366.2319641113281 198.39999389648438 C 366.2319641113281 196.4933319091797 365.9486389160156 194.63999938964844 365.3819580078125 192.83999633789062 C 364.8152770996094 191.03334045410156 363.9686279296875 189.3766632080078 362.8419494628906 187.8699951171875 L 364.741943359375 187.8699951171875 C 365.8952941894531 189.23666381835938 366.77197265625 190.82333374023438 367.3719482421875 192.6300048828125 C 367.9719543457031 194.43666076660156 368.27197265625 196.3699951171875 368.27197265625 198.42999267578125 Z" transform="matrix(1, 0, 0, 1, -23.844154357910156, -151.0129852294922)" style="fill: rgb(51, 51, 51); white-space: pre; color: rgb(51, 51, 51);"/><path d="M 289.0628662109375 492.9200134277344 C 289.6361999511719 492.9200134277344 290.1495056152344 492.9666748046875 290.60284423828125 493.05999755859375 L 290.3328552246094 494.8699951171875 C 289.7995300292969 494.75 289.32952880859375 494.69000244140625 288.9228515625 494.69000244140625 C 287.8828430175781 494.69000244140625 286.9961853027344 495.11334228515625 286.2628479003906 495.9599914550781 C 285.5228576660156 496.79998779296875 285.1528625488281 497.8500061035156 285.1528625488281 499.1099853515625 L 285.1528625488281 506 L 283.2028503417969 506 L 283.2028503417969 493.1600036621094 L 284.8128662109375 493.1600036621094 L 285.0328674316406 495.5400085449219 L 285.12286376953125 495.5400085449219 C 285.60284423828125 494.70001220703125 286.17950439453125 494.0533447265625 286.85284423828125 493.6000061035156 C 287.51953125 493.14666748046875 288.2561950683594 492.9200134277344 289.0628662109375 492.9200134277344 ZM 298.4291687011719 506.2300109863281 C 296.5291748046875 506.2300109863281 295.0291748046875 505.6533203125 293.9291687011719 504.5 C 292.8358459472656 503.3466796875 292.2891845703125 501.739990234375 292.2891845703125 499.67999267578125 C 292.2891845703125 497.61334228515625 292.7991638183594 495.9700012207031 293.8191833496094 494.75 C 294.83917236328125 493.5299987792969 296.2058410644531 492.9200134277344 297.919189453125 492.9200134277344 C 299.5325012207031 492.9200134277344 300.80584716796875 493.45001220703125 301.7391662597656 494.510009765625 C 302.6791687011719 495.57000732421875 303.149169921875 496.9666748046875 303.149169921875 498.70001220703125 L 303.149169921875 499.92999267578125 L 294.2991638183594 499.92999267578125 C 294.33917236328125 501.4366760253906 294.7225036621094 502.5799865722656 295.4491882324219 503.3599853515625 C 296.169189453125 504.14666748046875 297.18585205078125 504.5400085449219 298.4991760253906 504.5400085449219 C 299.8791809082031 504.5400085449219 301.245849609375 504.25 302.59918212890625 503.6700134277344 L 302.59918212890625 505.3999938964844 C 301.9125061035156 505.70001220703125 301.26251220703125 505.913330078125 300.649169921875 506.0400085449219 C 300.0358581542969 506.1666564941406 299.29583740234375 506.2300109863281 298.4291687011719 506.2300109863281 M 297.899169921875 494.54998779296875 C 296.8658447265625 494.54998779296875 296.0425109863281 494.88665771484375 295.4291687011719 495.55999755859375 C 294.81585693359375 496.23333740234375 294.4558410644531 497.163330078125 294.34918212890625 498.3500061035156 L 301.0691833496094 498.3500061035156 C 301.0691833496094 497.1233215332031 300.7925109863281 496.1833190917969 300.2391662597656 495.5299987792969 C 299.6925048828125 494.8766784667969 298.9125061035156 494.54998779296875 297.899169921875 494.54998779296875 ZM 314.7532653808594 502.5 C 314.7532653808594 503.6933288574219 314.30657958984375 504.61334228515625 313.41326904296875 505.260009765625 C 312.5265808105469 505.90667724609375 311.2765808105469 506.2300109863281 309.66326904296875 506.2300109863281 C 307.9632568359375 506.2300109863281 306.6365966796875 505.9633483886719 305.6832580566406 505.42999267578125 L 305.6832580566406 503.6199951171875 C 306.2966003417969 503.9333190917969 306.95660400390625 504.17999267578125 307.66326904296875 504.3599853515625 C 308.36993408203125 504.5400085449219 309.0532531738281 504.6300048828125 309.7132568359375 504.6300048828125 C 310.7265930175781 504.6300048828125 311.506591796875 504.4666748046875 312.0532531738281 504.1400146484375 C 312.59991455078125 503.82000732421875 312.8732604980469 503.32666015625 312.8732604980469 502.6600036621094 C 312.8732604980469 502.1600036621094 312.6565856933594 501.73333740234375 312.2232666015625 501.3800048828125 C 311.7899169921875 501.0199890136719 310.94659423828125 500.6000061035156 309.6932678222656 500.1199951171875 C 308.4932556152344 499.67333984375 307.64324951171875 499.2833251953125 307.14324951171875 498.95001220703125 C 306.6365966796875 498.6166687011719 306.2599182128906 498.239990234375 306.01324462890625 497.82000732421875 C 305.7666015625 497.3999938964844 305.64324951171875 496.89666748046875 305.64324951171875 496.30999755859375 C 305.64324951171875 495.2633361816406 306.0699157714844 494.4366760253906 306.9232482910156 493.8299865722656 C 307.7765808105469 493.22332763671875 308.9432678222656 492.9200134277344 310.4232482910156 492.9200134277344 C 311.8099365234375 492.9200134277344 313.16326904296875 493.2033386230469 314.4832458496094 493.7699890136719 L 313.79327392578125 495.3500061035156 C 312.49993896484375 494.8166809082031 311.3299255371094 494.54998779296875 310.28326416015625 494.54998779296875 C 309.3632507324219 494.54998779296875 308.669921875 494.6933288574219 308.2032470703125 494.9800109863281 C 307.72991943359375 495.2733459472656 307.4932556152344 495.67333984375 307.4932556152344 496.17999267578125 C 307.4932556152344 496.52667236328125 307.583251953125 496.82000732421875 307.76324462890625 497.05999755859375 C 307.93658447265625 497.29998779296875 308.2199401855469 497.5299987792969 308.6132507324219 497.75 C 308.99993896484375 497.9700012207031 309.74993896484375 498.28668212890625 310.8632507324219 498.70001220703125 C 312.3832702636719 499.2533264160156 313.409912109375 499.80999755859375 313.9432678222656 500.3699951171875 C 314.4832458496094 500.9366760253906 314.7532653808594 501.64666748046875 314.7532653808594 502.5 ZM 323.8918762207031 506.2300109863281 C 323.05853271484375 506.2300109863281 322.2951965332031 506.07666015625 321.60186767578125 505.7699890136719 C 320.9085388183594 505.4633483886719 320.3285217285156 504.989990234375 319.86187744140625 504.3500061035156 L 319.72186279296875 504.3500061035156 C 319.8152160644531 505.0966796875 319.86187744140625 505.8066711425781 319.86187744140625 506.4800109863281 L 319.86187744140625 511.7699890136719 L 317.911865234375 511.7699890136719 L 317.911865234375 493.1600036621094 L 319.49188232421875 493.1600036621094 L 319.7618713378906 494.9100036621094 L 319.86187744140625 494.9100036621094 C 320.36187744140625 494.2099914550781 320.9418640136719 493.7033386230469 321.60186767578125 493.3900146484375 C 322.2685241699219 493.07666015625 323.0318603515625 492.9200134277344 323.8918762207031 492.9200134277344 C 325.59185791015625 492.9200134277344 326.90521240234375 493.5033264160156 327.8318786621094 494.6700134277344 C 328.758544921875 495.8299865722656 329.22186279296875 497.46331787109375 329.22186279296875 499.57000732421875 C 329.22186279296875 501.6766662597656 328.7518615722656 503.3133239746094 327.8118591308594 504.4800109863281 C 326.8718566894531 505.64666748046875 325.565185546875 506.2300109863281 323.8918762207031 506.2300109863281 M 323.61187744140625 494.57000732421875 C 322.29852294921875 494.57000732421875 321.3485412597656 494.9333190917969 320.7618713378906 495.6600036621094 C 320.1752014160156 496.38665771484375 319.8752136230469 497.5433349609375 319.86187744140625 499.1300048828125 L 319.86187744140625 499.57000732421875 C 319.86187744140625 501.3699951171875 320.161865234375 502.6600036621094 320.7618713378906 503.44000244140625 C 321.36187744140625 504.2200012207031 322.3251953125 504.6099853515625 323.65185546875 504.6099853515625 C 324.76519775390625 504.6099853515625 325.63519287109375 504.1600036621094 326.2618713378906 503.260009765625 C 326.89520263671875 502.3599853515625 327.21185302734375 501.1199951171875 327.21185302734375 499.5400085449219 C 327.21185302734375 497.94000244140625 326.89520263671875 496.71331787109375 326.2618713378906 495.8599853515625 C 325.63519287109375 495 324.7518615722656 494.57000732421875 323.61187744140625 494.57000732421875 Z" transform="matrix(1, 0, 0, 1, -8.83116626739502, -176.62338256835938)" style="fill: rgb(51, 51, 51); white-space: pre; color: rgb(51, 51, 51);"/></svg>